<svg width="999" height="147" viewBox="0 0 999 147" fill="none" xmlns="http://www.w3.org/2000/svg">
<path d="M0 55C0 52.7909 1.79086 51 4 51H152C154.209 51 156 52.7909 156 55V88C156 90.2091 154.209 92 152 92H4C1.79086 92 0 90.2091 0 88V55Z" fill="#00367F" fill-opacity="0.16"/>
<path d="M20.416 76.192C19.648 76.192 18.972 76.016 18.388 75.664C17.804 75.304 17.348 74.792 17.02 74.128C16.692 73.464 16.528 72.672 16.528 71.752C16.528 70.84 16.688 70.052 17.008 69.388C17.336 68.716 17.792 68.2 18.376 67.84C18.96 67.472 19.644 67.288 20.428 67.288C21.484 67.288 22.304 67.552 22.888 68.08C23.472 68.608 23.852 69.34 24.028 70.276L22.672 70.348C22.56 69.764 22.32 69.308 21.952 68.98C21.584 68.644 21.076 68.476 20.428 68.476C19.908 68.476 19.456 68.608 19.072 68.872C18.696 69.136 18.4 69.512 18.184 70C17.976 70.488 17.872 71.072 17.872 71.752C17.872 72.432 17.976 73.016 18.184 73.504C18.4 73.992 18.7 74.364 19.084 74.62C19.468 74.876 19.912 75.004 20.416 75.004C21.104 75.004 21.636 74.824 22.012 74.464C22.396 74.096 22.636 73.592 22.732 72.952L24.088 73.024C23.984 73.672 23.776 74.232 23.464 74.704C23.152 75.176 22.74 75.544 22.228 75.808C21.716 76.064 21.112 76.192 20.416 76.192ZM27.4889 76.144C26.8809 76.144 26.3489 76.008 25.8929 75.736C25.4369 75.464 25.0849 75.076 24.8369 74.572C24.5889 74.068 24.4649 73.48 24.4649 72.808C24.4649 72.128 24.5889 71.54 24.8369 71.044C25.0849 70.548 25.4369 70.164 25.8929 69.892C26.3489 69.612 26.8809 69.472 27.4889 69.472C28.0969 69.472 28.6289 69.612 29.0849 69.892C29.5409 70.164 29.8929 70.548 30.1409 71.044C30.3889 71.54 30.5129 72.128 30.5129 72.808C30.5129 73.48 30.3889 74.068 30.1409 74.572C29.8929 75.076 29.5409 75.464 29.0849 75.736C28.6289 76.008 28.0969 76.144 27.4889 76.144ZM27.4889 75.04C28.0329 75.04 28.4529 74.844 28.7489 74.452C29.0449 74.052 29.1929 73.504 29.1929 72.808C29.1929 72.112 29.0449 71.568 28.7489 71.176C28.4529 70.776 28.0329 70.576 27.4889 70.576C26.9529 70.576 26.5329 70.776 26.2289 71.176C25.9329 71.568 25.7849 72.112 25.7849 72.808C25.7849 73.504 25.9329 74.052 26.2289 74.452C26.5329 74.844 26.9529 75.04 27.4889 75.04ZM31.2984 76V69.616H32.4624L32.5104 71.32L32.3544 71.236C32.4264 70.82 32.5624 70.484 32.7624 70.228C32.9624 69.972 33.2064 69.784 33.4944 69.664C33.7824 69.536 34.0944 69.472 34.4304 69.472C34.9104 69.472 35.3064 69.58 35.6184 69.796C35.9384 70.004 36.1784 70.292 36.3384 70.66C36.5064 71.02 36.5904 71.432 36.5904 71.896V76H35.3184V72.28C35.3184 71.904 35.2784 71.588 35.1984 71.332C35.1184 71.076 34.9864 70.88 34.8024 70.744C34.6184 70.608 34.3784 70.54 34.0824 70.54C33.6344 70.54 33.2704 70.688 32.9904 70.984C32.7104 71.28 32.5704 71.712 32.5704 72.28V76H31.2984ZM37.6656 76V69.616H38.8296L38.8776 71.32L38.7216 71.236C38.7936 70.82 38.9296 70.484 39.1296 70.228C39.3296 69.972 39.5736 69.784 39.8616 69.664C40.1496 69.536 40.4616 69.472 40.7976 69.472C41.2776 69.472 41.6736 69.58 41.9856 69.796C42.3056 70.004 42.5456 70.292 42.7056 70.66C42.8736 71.02 42.9576 71.432 42.9576 71.896V76H41.6856V72.28C41.6856 71.904 41.6456 71.588 41.5656 71.332C41.4856 71.076 41.3536 70.88 41.1696 70.744C40.9856 70.608 40.7456 70.54 40.4496 70.54C40.0016 70.54 39.6376 70.688 39.3576 70.984C39.0776 71.28 38.9376 71.712 38.9376 72.28V76H37.6656ZM46.7428 76.144C46.1188 76.144 45.5788 76.008 45.1228 75.736C44.6748 75.464 44.3268 75.076 44.0788 74.572C43.8388 74.068 43.7188 73.48 43.7188 72.808C43.7188 72.136 43.8388 71.552 44.0788 71.056C44.3268 70.552 44.6748 70.164 45.1228 69.892C45.5708 69.612 46.0988 69.472 46.7068 69.472C47.2828 69.472 47.7908 69.608 48.2308 69.88C48.6708 70.144 49.0108 70.528 49.2508 71.032C49.4988 71.536 49.6228 72.144 49.6228 72.856V73.18H45.0388C45.0708 73.804 45.2348 74.272 45.5308 74.584C45.8348 74.896 46.2428 75.052 46.7548 75.052C47.1308 75.052 47.4428 74.964 47.6908 74.788C47.9388 74.612 48.1108 74.376 48.2068 74.08L49.5268 74.164C49.3588 74.756 49.0268 75.236 48.5308 75.604C48.0428 75.964 47.4468 76.144 46.7428 76.144ZM45.0388 72.22H48.2788C48.2388 71.652 48.0748 71.232 47.7868 70.96C47.5068 70.688 47.1468 70.552 46.7068 70.552C46.2508 70.552 45.8748 70.696 45.5788 70.984C45.2908 71.264 45.1108 71.676 45.0388 72.22ZM53.0397 76.144C52.4317 76.144 51.8997 76.008 51.4437 75.736C50.9877 75.464 50.6357 75.076 50.3877 74.572C50.1397 74.068 50.0157 73.48 50.0157 72.808C50.0157 72.136 50.1397 71.552 50.3877 71.056C50.6357 70.552 50.9877 70.164 51.4437 69.892C51.8997 69.612 52.4317 69.472 53.0397 69.472C53.5597 69.472 54.0197 69.564 54.4197 69.748C54.8277 69.924 55.1557 70.184 55.4037 70.528C55.6597 70.872 55.8237 71.292 55.8957 71.788L54.5637 71.86C54.4997 71.444 54.3317 71.128 54.0597 70.912C53.7877 70.688 53.4477 70.576 53.0397 70.576C52.5037 70.576 52.0837 70.776 51.7797 71.176C51.4837 71.568 51.3357 72.112 51.3357 72.808C51.3357 73.504 51.4837 74.052 51.7797 74.452C52.0837 74.844 52.5037 75.04 53.0397 75.04C53.4477 75.04 53.7877 74.928 54.0597 74.704C54.3317 74.472 54.4997 74.124 54.5637 73.66L55.8957 73.732C55.8237 74.22 55.6597 74.644 55.4037 75.004C55.1557 75.364 54.8277 75.644 54.4197 75.844C54.0197 76.044 53.5597 76.144 53.0397 76.144ZM58.7699 76C58.1619 76 57.7139 75.86 57.4259 75.58C57.1379 75.3 56.9939 74.864 56.9939 74.272V68.116H58.2659V74.176C58.2659 74.472 58.3299 74.676 58.4579 74.788C58.5859 74.9 58.7819 74.956 59.0459 74.956H59.9579V76H58.7699ZM56.0219 70.66V69.616H59.9579V70.66H56.0219ZM63.2937 76V67.48H66.4737C67.4497 67.48 68.2097 67.716 68.7537 68.188C69.2977 68.652 69.5697 69.3 69.5697 70.132C69.5697 70.684 69.4457 71.164 69.1977 71.572C68.9497 71.972 68.5937 72.28 68.1297 72.496C67.6737 72.704 67.1217 72.808 66.4737 72.808H64.5897V76H63.2937ZM64.5897 71.632H66.4377C67.0217 71.632 67.4657 71.508 67.7697 71.26C68.0737 71.004 68.2257 70.628 68.2257 70.132C68.2257 69.644 68.0737 69.28 67.7697 69.04C67.4657 68.792 67.0217 68.668 66.4377 68.668H64.5897V71.632ZM73.9238 76.192C73.1558 76.192 72.4798 76.016 71.8958 75.664C71.3118 75.304 70.8558 74.792 70.5278 74.128C70.1998 73.464 70.0358 72.672 70.0358 71.752C70.0358 70.84 70.1958 70.052 70.5158 69.388C70.8438 68.716 71.2998 68.2 71.8838 67.84C72.4678 67.472 73.1518 67.288 73.9358 67.288C74.9918 67.288 75.8118 67.552 76.3958 68.08C76.9798 68.608 77.3598 69.34 77.5358 70.276L76.1798 70.348C76.0678 69.764 75.8278 69.308 75.4598 68.98C75.0918 68.644 74.5838 68.476 73.9358 68.476C73.4158 68.476 72.9638 68.608 72.5798 68.872C72.2038 69.136 71.9078 69.512 71.6918 70C71.4838 70.488 71.3798 71.072 71.3798 71.752C71.3798 72.432 71.4838 73.016 71.6918 73.504C71.9078 73.992 72.2078 74.364 72.5918 74.62C72.9758 74.876 73.4198 75.004 73.9238 75.004C74.6118 75.004 75.1438 74.824 75.5198 74.464C75.9038 74.096 76.1438 73.592 76.2398 72.952L77.5958 73.024C77.4918 73.672 77.2838 74.232 76.9718 74.704C76.6598 75.176 76.2478 75.544 75.7358 75.808C75.2238 76.064 74.6198 76.192 73.9238 76.192ZM82.6685 76.144C82.0045 76.144 81.4725 75.992 81.0725 75.688C80.6805 75.384 80.4845 74.956 80.4845 74.404C80.4845 73.852 80.6485 73.424 80.9765 73.12C81.3125 72.808 81.8285 72.584 82.5245 72.448L84.7205 72.028C84.7205 71.532 84.6045 71.164 84.3725 70.924C84.1405 70.676 83.7965 70.552 83.3405 70.552C82.9325 70.552 82.6125 70.644 82.3805 70.828C82.1485 71.004 81.9885 71.268 81.9005 71.62L80.5925 71.536C80.7125 70.896 81.0085 70.392 81.4805 70.024C81.9605 69.656 82.5805 69.472 83.3405 69.472C84.2045 69.472 84.8605 69.704 85.3085 70.168C85.7645 70.624 85.9925 71.268 85.9925 72.1V74.584C85.9925 74.736 86.0165 74.844 86.0645 74.908C86.1205 74.964 86.2085 74.992 86.3285 74.992H86.5565V76C86.5165 76.008 86.4525 76.016 86.3645 76.024C86.2765 76.032 86.1845 76.036 86.0885 76.036C85.8165 76.036 85.5805 75.992 85.3805 75.904C85.1885 75.816 85.0445 75.672 84.9485 75.472C84.8525 75.264 84.8045 74.988 84.8045 74.644L84.9365 74.704C84.8725 74.984 84.7325 75.232 84.5165 75.448C84.3085 75.664 84.0405 75.836 83.7125 75.964C83.3925 76.084 83.0445 76.144 82.6685 76.144ZM82.8725 75.136C83.2565 75.136 83.5845 75.064 83.8565 74.92C84.1285 74.768 84.3405 74.56 84.4925 74.296C84.6445 74.032 84.7205 73.732 84.7205 73.396V72.988L82.8485 73.348C82.4645 73.42 82.1925 73.536 82.0325 73.696C81.8805 73.848 81.8045 74.044 81.8045 74.284C81.8045 74.556 81.8965 74.768 82.0805 74.92C82.2725 75.064 82.5365 75.136 82.8725 75.136ZM87.1305 76V69.616H88.2945L88.3425 71.32L88.1865 71.236C88.2585 70.82 88.3945 70.484 88.5945 70.228C88.7945 69.972 89.0385 69.784 89.3265 69.664C89.6145 69.536 89.9265 69.472 90.2625 69.472C90.7425 69.472 91.1385 69.58 91.4505 69.796C91.7705 70.004 92.0105 70.292 92.1705 70.66C92.3385 71.02 92.4225 71.432 92.4225 71.896V76H91.1505V72.28C91.1505 71.904 91.1105 71.588 91.0305 71.332C90.9505 71.076 90.8185 70.88 90.6345 70.744C90.4505 70.608 90.2105 70.54 89.9145 70.54C89.4665 70.54 89.1025 70.688 88.8225 70.984C88.5425 71.28 88.4025 71.712 88.4025 72.28V76H87.1305ZM95.8477 76.144C95.3037 76.144 94.8277 76.008 94.4197 75.736C94.0197 75.464 93.7117 75.08 93.4957 74.584C93.2877 74.08 93.1837 73.488 93.1837 72.808C93.1837 72.128 93.2917 71.54 93.5077 71.044C93.7237 70.54 94.0317 70.152 94.4317 69.88C94.8317 69.608 95.3037 69.472 95.8477 69.472C96.2877 69.472 96.6797 69.564 97.0237 69.748C97.3677 69.932 97.6277 70.188 97.8037 70.516V67.48H99.0757V76H97.8877L97.8517 75.04C97.6757 75.384 97.4077 75.656 97.0477 75.856C96.6957 76.048 96.2957 76.144 95.8477 76.144ZM96.1837 75.04C96.5277 75.04 96.8197 74.952 97.0597 74.776C97.2997 74.6 97.4837 74.344 97.6117 74.008C97.7397 73.672 97.8037 73.272 97.8037 72.808C97.8037 72.328 97.7397 71.924 97.6117 71.596C97.4837 71.26 97.2997 71.008 97.0597 70.84C96.8197 70.664 96.5277 70.576 96.1837 70.576C95.6717 70.576 95.2637 70.776 94.9597 71.176C94.6557 71.568 94.5037 72.112 94.5037 72.808C94.5037 73.496 94.6557 74.04 94.9597 74.44C95.2637 74.84 95.6717 75.04 96.1837 75.04ZM105.366 77.944C104.862 77.944 104.418 77.868 104.034 77.716C103.65 77.564 103.334 77.348 103.086 77.068C102.838 76.796 102.67 76.476 102.582 76.108L103.902 76.024C103.99 76.288 104.142 76.496 104.358 76.648C104.582 76.808 104.918 76.888 105.366 76.888C105.894 76.888 106.298 76.776 106.578 76.552C106.866 76.328 107.01 75.988 107.01 75.532V74.608C106.858 74.936 106.614 75.196 106.278 75.388C105.942 75.58 105.566 75.676 105.15 75.676C104.614 75.676 104.138 75.544 103.722 75.28C103.306 75.016 102.982 74.652 102.75 74.188C102.518 73.724 102.402 73.188 102.402 72.58C102.402 71.964 102.514 71.424 102.738 70.96C102.97 70.496 103.29 70.132 103.698 69.868C104.114 69.604 104.582 69.472 105.102 69.472C105.558 69.472 105.958 69.576 106.302 69.784C106.654 69.992 106.906 70.272 107.058 70.624V69.616H108.282V75.496C108.282 76.024 108.162 76.468 107.922 76.828C107.69 77.196 107.354 77.472 106.914 77.656C106.482 77.848 105.966 77.944 105.366 77.944ZM105.354 74.596C105.85 74.596 106.246 74.416 106.542 74.056C106.846 73.696 107.002 73.2 107.01 72.568C107.018 72.152 106.954 71.796 106.818 71.5C106.682 71.196 106.486 70.964 106.23 70.804C105.982 70.636 105.69 70.552 105.354 70.552C104.834 70.552 104.43 70.736 104.142 71.104C103.862 71.464 103.722 71.952 103.722 72.568C103.722 73.192 103.866 73.688 104.154 74.056C104.45 74.416 104.85 74.596 105.354 74.596ZM109.588 76V69.616H110.752L110.8 71.308L110.692 71.272C110.78 70.696 110.956 70.276 111.22 70.012C111.492 69.748 111.856 69.616 112.312 69.616H112.924V70.756H112.312C111.992 70.756 111.724 70.808 111.508 70.912C111.292 71.016 111.128 71.176 111.016 71.392C110.912 71.608 110.86 71.888 110.86 72.232V76H109.588ZM113.47 76V69.616H114.742V76H113.47ZM113.446 68.692V67.42H114.766V68.692H113.446ZM116.146 77.8V69.616H117.346L117.382 70.984L117.238 70.912C117.398 70.44 117.662 70.084 118.03 69.844C118.398 69.596 118.822 69.472 119.302 69.472C119.926 69.472 120.438 69.628 120.838 69.94C121.246 70.244 121.546 70.648 121.738 71.152C121.938 71.656 122.038 72.208 122.038 72.808C122.038 73.408 121.938 73.96 121.738 74.464C121.546 74.968 121.246 75.376 120.838 75.688C120.438 75.992 119.926 76.144 119.302 76.144C118.982 76.144 118.682 76.088 118.402 75.976C118.122 75.864 117.882 75.708 117.682 75.508C117.49 75.3 117.354 75.056 117.274 74.776L117.418 74.632V77.8H116.146ZM119.074 75.04C119.586 75.04 119.986 74.844 120.274 74.452C120.57 74.06 120.718 73.512 120.718 72.808C120.718 72.104 120.57 71.556 120.274 71.164C119.986 70.772 119.586 70.576 119.074 70.576C118.738 70.576 118.446 70.66 118.198 70.828C117.95 70.988 117.758 71.236 117.622 71.572C117.486 71.908 117.418 72.32 117.418 72.808C117.418 73.296 117.482 73.708 117.61 74.044C117.746 74.38 117.938 74.632 118.186 74.8C118.442 74.96 118.738 75.04 119.074 75.04ZM122.83 77.8V69.616H124.03L124.066 70.984L123.922 70.912C124.082 70.44 124.346 70.084 124.714 69.844C125.082 69.596 125.506 69.472 125.986 69.472C126.61 69.472 127.122 69.628 127.522 69.94C127.93 70.244 128.23 70.648 128.422 71.152C128.622 71.656 128.722 72.208 128.722 72.808C128.722 73.408 128.622 73.96 128.422 74.464C128.23 74.968 127.93 75.376 127.522 75.688C127.122 75.992 126.61 76.144 125.986 76.144C125.666 76.144 125.366 76.088 125.086 75.976C124.806 75.864 124.566 75.708 124.366 75.508C124.174 75.3 124.038 75.056 123.958 74.776L124.102 74.632V77.8H122.83ZM125.758 75.04C126.27 75.04 126.67 74.844 126.958 74.452C127.254 74.06 127.402 73.512 127.402 72.808C127.402 72.104 127.254 71.556 126.958 71.164C126.67 70.772 126.27 70.576 125.758 70.576C125.422 70.576 125.13 70.66 124.882 70.828C124.634 70.988 124.442 71.236 124.306 71.572C124.17 71.908 124.102 72.32 124.102 72.808C124.102 73.296 124.166 73.708 124.294 74.044C124.43 74.38 124.622 74.632 124.87 74.8C125.126 74.96 125.422 75.04 125.758 75.04ZM132.141 76.144C131.517 76.144 130.977 76.008 130.521 75.736C130.073 75.464 129.725 75.076 129.477 74.572C129.237 74.068 129.117 73.48 129.117 72.808C129.117 72.136 129.237 71.552 129.477 71.056C129.725 70.552 130.073 70.164 130.521 69.892C130.969 69.612 131.497 69.472 132.105 69.472C132.681 69.472 133.189 69.608 133.629 69.88C134.069 70.144 134.409 70.528 134.649 71.032C134.897 71.536 135.021 72.144 135.021 72.856V73.18H130.437C130.469 73.804 130.633 74.272 130.929 74.584C131.233 74.896 131.641 75.052 132.153 75.052C132.529 75.052 132.841 74.964 133.089 74.788C133.337 74.612 133.509 74.376 133.605 74.08L134.925 74.164C134.757 74.756 134.425 75.236 133.929 75.604C133.441 75.964 132.845 76.144 132.141 76.144ZM130.437 72.22H133.677C133.637 71.652 133.473 71.232 133.185 70.96C132.905 70.688 132.545 70.552 132.105 70.552C131.649 70.552 131.273 70.696 130.977 70.984C130.689 71.264 130.509 71.676 130.437 72.22ZM135.81 76V69.616H136.974L137.022 71.308L136.914 71.272C137.002 70.696 137.178 70.276 137.442 70.012C137.714 69.748 138.078 69.616 138.534 69.616H139.146V70.756H138.534C138.214 70.756 137.946 70.808 137.73 70.912C137.514 71.016 137.35 71.176 137.238 71.392C137.134 71.608 137.082 71.888 137.082 72.232V76H135.81Z" fill="#00367F"/>
<g clip-path="url(#clip0_10134_28086)">
<path d="M165.875 71.5H174.125" stroke="#00367F" stroke-width="1.5" stroke-linecap="round" stroke-linejoin="round"/>
<path d="M170.75 68.125L174.125 71.5L170.75 74.875" stroke="#00367F" stroke-width="1.5" stroke-linecap="round" stroke-linejoin="round"/>
</g>
<path d="M184 55C184 52.7909 185.791 51 188 51H367C369.209 51 371 52.7909 371 55V88C371 90.2091 369.209 92 367 92H188C185.791 92 184 90.2091 184 88V55Z" fill="#00367F" fill-opacity="0.16"/>
<path d="M204.5 76.192C203.676 76.192 202.968 76.016 202.376 75.664C201.784 75.304 201.328 74.792 201.008 74.128C200.688 73.464 200.528 72.672 200.528 71.752C200.528 70.832 200.688 70.04 201.008 69.376C201.328 68.704 201.784 68.188 202.376 67.828C202.968 67.468 203.676 67.288 204.5 67.288C205.332 67.288 206.044 67.468 206.636 67.828C207.236 68.188 207.692 68.704 208.004 69.376C208.324 70.04 208.484 70.832 208.484 71.752C208.484 72.672 208.324 73.464 208.004 74.128C207.692 74.792 207.236 75.304 206.636 75.664C206.044 76.016 205.332 76.192 204.5 76.192ZM204.5 75.004C205.052 75.004 205.524 74.876 205.916 74.62C206.316 74.364 206.62 73.996 206.828 73.516C207.036 73.028 207.14 72.44 207.14 71.752C207.14 71.064 207.036 70.476 206.828 69.988C206.62 69.5 206.316 69.128 205.916 68.872C205.524 68.608 205.052 68.476 204.5 68.476C203.956 68.476 203.488 68.608 203.096 68.872C202.704 69.128 202.4 69.5 202.184 69.988C201.976 70.476 201.872 71.064 201.872 71.752C201.872 72.44 201.976 73.028 202.184 73.516C202.4 73.996 202.704 74.364 203.096 74.62C203.488 74.876 203.956 75.004 204.5 75.004ZM209.412 77.8V69.616H210.612L210.648 70.984L210.504 70.912C210.664 70.44 210.928 70.084 211.296 69.844C211.664 69.596 212.088 69.472 212.568 69.472C213.192 69.472 213.704 69.628 214.104 69.94C214.512 70.244 214.812 70.648 215.004 71.152C215.204 71.656 215.304 72.208 215.304 72.808C215.304 73.408 215.204 73.96 215.004 74.464C214.812 74.968 214.512 75.376 214.104 75.688C213.704 75.992 213.192 76.144 212.568 76.144C212.248 76.144 211.948 76.088 211.668 75.976C211.388 75.864 211.148 75.708 210.948 75.508C210.756 75.3 210.62 75.056 210.54 74.776L210.684 74.632V77.8H209.412ZM212.34 75.04C212.852 75.04 213.252 74.844 213.54 74.452C213.836 74.06 213.984 73.512 213.984 72.808C213.984 72.104 213.836 71.556 213.54 71.164C213.252 70.772 212.852 70.576 212.34 70.576C212.004 70.576 211.712 70.66 211.464 70.828C211.216 70.988 211.024 71.236 210.888 71.572C210.752 71.908 210.684 72.32 210.684 72.808C210.684 73.296 210.748 73.708 210.876 74.044C211.012 74.38 211.204 74.632 211.452 74.8C211.708 74.96 212.004 75.04 212.34 75.04ZM218.723 76.144C218.099 76.144 217.559 76.008 217.103 75.736C216.655 75.464 216.307 75.076 216.059 74.572C215.819 74.068 215.699 73.48 215.699 72.808C215.699 72.136 215.819 71.552 216.059 71.056C216.307 70.552 216.655 70.164 217.103 69.892C217.551 69.612 218.079 69.472 218.687 69.472C219.263 69.472 219.771 69.608 220.211 69.88C220.651 70.144 220.991 70.528 221.231 71.032C221.479 71.536 221.603 72.144 221.603 72.856V73.18H217.019C217.051 73.804 217.215 74.272 217.511 74.584C217.815 74.896 218.223 75.052 218.735 75.052C219.111 75.052 219.423 74.964 219.671 74.788C219.919 74.612 220.091 74.376 220.187 74.08L221.507 74.164C221.339 74.756 221.007 75.236 220.511 75.604C220.023 75.964 219.427 76.144 218.723 76.144ZM217.019 72.22H220.259C220.219 71.652 220.055 71.232 219.767 70.96C219.487 70.688 219.127 70.552 218.687 70.552C218.231 70.552 217.855 70.696 217.559 70.984C217.271 71.264 217.091 71.676 217.019 72.22ZM222.392 76V69.616H223.556L223.604 71.32L223.448 71.236C223.52 70.82 223.656 70.484 223.856 70.228C224.056 69.972 224.3 69.784 224.588 69.664C224.876 69.536 225.188 69.472 225.524 69.472C226.004 69.472 226.4 69.58 226.712 69.796C227.032 70.004 227.272 70.292 227.432 70.66C227.6 71.02 227.684 71.432 227.684 71.896V76H226.412V72.28C226.412 71.904 226.372 71.588 226.292 71.332C226.212 71.076 226.08 70.88 225.896 70.744C225.712 70.608 225.472 70.54 225.176 70.54C224.728 70.54 224.364 70.688 224.084 70.984C223.804 71.28 223.664 71.712 223.664 72.28V76H222.392ZM233.848 76C233.24 76 232.792 75.86 232.504 75.58C232.216 75.3 232.072 74.864 232.072 74.272V68.116H233.344V74.176C233.344 74.472 233.408 74.676 233.536 74.788C233.664 74.9 233.86 74.956 234.124 74.956H235.036V76H233.848ZM231.1 70.66V69.616H235.036V70.66H231.1ZM235.752 76V67.48H237.024V71.056L236.868 71.032C236.94 70.672 237.072 70.38 237.264 70.156C237.456 69.924 237.692 69.752 237.972 69.64C238.252 69.528 238.56 69.472 238.896 69.472C239.36 69.472 239.752 69.576 240.072 69.784C240.392 69.984 240.632 70.268 240.792 70.636C240.96 71.004 241.044 71.424 241.044 71.896V76H239.772V72.232C239.772 71.656 239.672 71.232 239.472 70.96C239.28 70.68 238.976 70.54 238.56 70.54C238.096 70.54 237.724 70.688 237.444 70.984C237.164 71.272 237.024 71.696 237.024 72.256V76H235.752ZM244.829 76.144C244.205 76.144 243.665 76.008 243.209 75.736C242.761 75.464 242.413 75.076 242.165 74.572C241.925 74.068 241.805 73.48 241.805 72.808C241.805 72.136 241.925 71.552 242.165 71.056C242.413 70.552 242.761 70.164 243.209 69.892C243.657 69.612 244.185 69.472 244.793 69.472C245.369 69.472 245.877 69.608 246.317 69.88C246.757 70.144 247.097 70.528 247.337 71.032C247.585 71.536 247.709 72.144 247.709 72.856V73.18H243.125C243.157 73.804 243.321 74.272 243.617 74.584C243.921 74.896 244.329 75.052 244.841 75.052C245.217 75.052 245.529 74.964 245.777 74.788C246.025 74.612 246.197 74.376 246.293 74.08L247.613 74.164C247.445 74.756 247.113 75.236 246.617 75.604C246.129 75.964 245.533 76.144 244.829 76.144ZM243.125 72.22H246.365C246.325 71.652 246.161 71.232 245.873 70.96C245.593 70.688 245.233 70.552 244.793 70.552C244.337 70.552 243.961 70.696 243.665 70.984C243.377 71.264 243.197 71.676 243.125 72.22ZM253.301 76.144C252.757 76.144 252.281 76.008 251.873 75.736C251.473 75.464 251.165 75.08 250.949 74.584C250.741 74.08 250.637 73.488 250.637 72.808C250.637 72.128 250.745 71.54 250.961 71.044C251.177 70.54 251.485 70.152 251.885 69.88C252.285 69.608 252.757 69.472 253.301 69.472C253.741 69.472 254.133 69.564 254.477 69.748C254.821 69.932 255.081 70.188 255.257 70.516V67.48H256.529V76H255.341L255.305 75.04C255.129 75.384 254.861 75.656 254.501 75.856C254.149 76.048 253.749 76.144 253.301 76.144ZM253.637 75.04C253.981 75.04 254.273 74.952 254.513 74.776C254.753 74.6 254.937 74.344 255.065 74.008C255.193 73.672 255.257 73.272 255.257 72.808C255.257 72.328 255.193 71.924 255.065 71.596C254.937 71.26 254.753 71.008 254.513 70.84C254.273 70.664 253.981 70.576 253.637 70.576C253.125 70.576 252.717 70.776 252.413 71.176C252.109 71.568 251.957 72.112 251.957 72.808C251.957 73.496 252.109 74.04 252.413 74.44C252.717 74.84 253.125 75.04 253.637 75.04ZM260.344 76.144C259.72 76.144 259.18 76.008 258.724 75.736C258.276 75.464 257.928 75.076 257.68 74.572C257.44 74.068 257.32 73.48 257.32 72.808C257.32 72.136 257.44 71.552 257.68 71.056C257.928 70.552 258.276 70.164 258.724 69.892C259.172 69.612 259.7 69.472 260.308 69.472C260.884 69.472 261.392 69.608 261.832 69.88C262.272 70.144 262.612 70.528 262.852 71.032C263.1 71.536 263.224 72.144 263.224 72.856V73.18H258.64C258.672 73.804 258.836 74.272 259.132 74.584C259.436 74.896 259.844 75.052 260.356 75.052C260.732 75.052 261.044 74.964 261.292 74.788C261.54 74.612 261.712 74.376 261.808 74.08L263.128 74.164C262.96 74.756 262.628 75.236 262.132 75.604C261.644 75.964 261.048 76.144 260.344 76.144ZM258.64 72.22H261.88C261.84 71.652 261.676 71.232 261.388 70.96C261.108 70.688 260.748 70.552 260.308 70.552C259.852 70.552 259.476 70.696 259.18 70.984C258.892 71.264 258.712 71.676 258.64 72.22ZM267.193 76.144C266.753 76.144 266.361 76.048 266.017 75.856C265.681 75.656 265.421 75.384 265.237 75.04L265.201 76H264.013V67.48H265.285V70.516C265.453 70.236 265.701 69.992 266.029 69.784C266.365 69.576 266.753 69.472 267.193 69.472C267.745 69.472 268.225 69.608 268.633 69.88C269.041 70.152 269.353 70.54 269.569 71.044C269.793 71.54 269.905 72.128 269.905 72.808C269.905 73.488 269.793 74.08 269.569 74.584C269.353 75.08 269.041 75.464 268.633 75.736C268.225 76.008 267.745 76.144 267.193 76.144ZM266.989 75.04C267.477 75.04 267.865 74.844 268.153 74.452C268.441 74.052 268.585 73.504 268.585 72.808C268.585 72.112 268.441 71.568 268.153 71.176C267.865 70.776 267.481 70.576 267.001 70.576C266.641 70.576 266.333 70.664 266.077 70.84C265.821 71.016 265.625 71.272 265.489 71.608C265.353 71.936 265.285 72.336 265.285 72.808C265.285 73.264 265.353 73.66 265.489 73.996C265.625 74.332 265.821 74.592 266.077 74.776C266.333 74.952 266.637 75.04 266.989 75.04ZM272.797 76.144C272.157 76.144 271.645 75.932 271.261 75.508C270.885 75.076 270.697 74.48 270.697 73.72V69.616H271.969V73.396C271.969 73.972 272.069 74.396 272.269 74.668C272.469 74.94 272.773 75.076 273.181 75.076C273.645 75.076 274.005 74.928 274.261 74.632C274.525 74.328 274.657 73.904 274.657 73.36V69.616H275.929V76H274.741L274.717 74.332L274.897 74.404C274.785 74.964 274.549 75.396 274.189 75.7C273.829 75.996 273.365 76.144 272.797 76.144ZM279.679 77.944C279.175 77.944 278.731 77.868 278.347 77.716C277.963 77.564 277.647 77.348 277.399 77.068C277.151 76.796 276.983 76.476 276.895 76.108L278.215 76.024C278.303 76.288 278.455 76.496 278.671 76.648C278.895 76.808 279.231 76.888 279.679 76.888C280.207 76.888 280.611 76.776 280.891 76.552C281.179 76.328 281.323 75.988 281.323 75.532V74.608C281.171 74.936 280.927 75.196 280.591 75.388C280.255 75.58 279.879 75.676 279.463 75.676C278.927 75.676 278.451 75.544 278.035 75.28C277.619 75.016 277.295 74.652 277.063 74.188C276.831 73.724 276.715 73.188 276.715 72.58C276.715 71.964 276.827 71.424 277.051 70.96C277.283 70.496 277.603 70.132 278.011 69.868C278.427 69.604 278.895 69.472 279.415 69.472C279.871 69.472 280.271 69.576 280.615 69.784C280.967 69.992 281.219 70.272 281.371 70.624V69.616H282.595V75.496C282.595 76.024 282.475 76.468 282.235 76.828C282.003 77.196 281.667 77.472 281.227 77.656C280.795 77.848 280.279 77.944 279.679 77.944ZM279.667 74.596C280.163 74.596 280.559 74.416 280.855 74.056C281.159 73.696 281.315 73.2 281.323 72.568C281.331 72.152 281.267 71.796 281.131 71.5C280.995 71.196 280.799 70.964 280.543 70.804C280.295 70.636 280.003 70.552 279.667 70.552C279.147 70.552 278.743 70.736 278.455 71.104C278.175 71.464 278.035 71.952 278.035 72.568C278.035 73.192 278.179 73.688 278.467 74.056C278.763 74.416 279.163 74.596 279.667 74.596ZM286.351 77.944C285.847 77.944 285.403 77.868 285.019 77.716C284.635 77.564 284.319 77.348 284.071 77.068C283.823 76.796 283.655 76.476 283.567 76.108L284.887 76.024C284.975 76.288 285.127 76.496 285.343 76.648C285.567 76.808 285.903 76.888 286.351 76.888C286.879 76.888 287.283 76.776 287.563 76.552C287.851 76.328 287.995 75.988 287.995 75.532V74.608C287.843 74.936 287.599 75.196 287.263 75.388C286.927 75.58 286.551 75.676 286.135 75.676C285.599 75.676 285.123 75.544 284.707 75.28C284.291 75.016 283.967 74.652 283.735 74.188C283.503 73.724 283.387 73.188 283.387 72.58C283.387 71.964 283.499 71.424 283.723 70.96C283.955 70.496 284.275 70.132 284.683 69.868C285.099 69.604 285.567 69.472 286.087 69.472C286.543 69.472 286.943 69.576 287.287 69.784C287.639 69.992 287.891 70.272 288.043 70.624V69.616H289.267V75.496C289.267 76.024 289.147 76.468 288.907 76.828C288.675 77.196 288.339 77.472 287.899 77.656C287.467 77.848 286.951 77.944 286.351 77.944ZM286.339 74.596C286.835 74.596 287.231 74.416 287.527 74.056C287.831 73.696 287.987 73.2 287.995 72.568C288.003 72.152 287.939 71.796 287.803 71.5C287.667 71.196 287.471 70.964 287.215 70.804C286.967 70.636 286.675 70.552 286.339 70.552C285.819 70.552 285.415 70.736 285.127 71.104C284.847 71.464 284.707 71.952 284.707 72.568C284.707 73.192 284.851 73.688 285.139 74.056C285.435 74.416 285.835 74.596 286.339 74.596ZM290.42 76V69.616H291.692V76H290.42ZM290.396 68.692V67.42H291.716V68.692H290.396ZM293.095 76V69.616H294.259L294.307 71.32L294.151 71.236C294.223 70.82 294.359 70.484 294.559 70.228C294.759 69.972 295.003 69.784 295.291 69.664C295.579 69.536 295.891 69.472 296.227 69.472C296.707 69.472 297.103 69.58 297.415 69.796C297.735 70.004 297.975 70.292 298.135 70.66C298.303 71.02 298.387 71.432 298.387 71.896V76H297.115V72.28C297.115 71.904 297.075 71.588 296.995 71.332C296.915 71.076 296.783 70.88 296.599 70.744C296.415 70.608 296.175 70.54 295.879 70.54C295.431 70.54 295.067 70.688 294.787 70.984C294.507 71.28 294.367 71.712 294.367 72.28V76H293.095ZM302.113 77.944C301.609 77.944 301.165 77.868 300.781 77.716C300.397 77.564 300.081 77.348 299.833 77.068C299.585 76.796 299.417 76.476 299.329 76.108L300.649 76.024C300.737 76.288 300.889 76.496 301.105 76.648C301.329 76.808 301.665 76.888 302.113 76.888C302.641 76.888 303.045 76.776 303.325 76.552C303.613 76.328 303.757 75.988 303.757 75.532V74.608C303.605 74.936 303.361 75.196 303.025 75.388C302.689 75.58 302.313 75.676 301.897 75.676C301.361 75.676 300.885 75.544 300.469 75.28C300.053 75.016 299.729 74.652 299.497 74.188C299.265 73.724 299.149 73.188 299.149 72.58C299.149 71.964 299.261 71.424 299.485 70.96C299.717 70.496 300.037 70.132 300.445 69.868C300.861 69.604 301.329 69.472 301.849 69.472C302.305 69.472 302.705 69.576 303.049 69.784C303.401 69.992 303.653 70.272 303.805 70.624V69.616H305.029V75.496C305.029 76.024 304.909 76.468 304.669 76.828C304.437 77.196 304.101 77.472 303.661 77.656C303.229 77.848 302.713 77.944 302.113 77.944ZM302.101 74.596C302.597 74.596 302.993 74.416 303.289 74.056C303.593 73.696 303.749 73.2 303.757 72.568C303.765 72.152 303.701 71.796 303.565 71.5C303.429 71.196 303.233 70.964 302.977 70.804C302.729 70.636 302.437 70.552 302.101 70.552C301.581 70.552 301.177 70.736 300.889 71.104C300.609 71.464 300.469 71.952 300.469 72.568C300.469 73.192 300.613 73.688 300.901 74.056C301.197 74.416 301.597 74.596 302.101 74.596ZM311.212 76.144C310.612 76.144 310.104 76.052 309.688 75.868C309.28 75.684 308.964 75.432 308.74 75.112C308.516 74.784 308.388 74.408 308.356 73.984L309.664 73.924C309.728 74.276 309.88 74.556 310.12 74.764C310.36 74.972 310.724 75.076 311.212 75.076C311.612 75.076 311.928 75.012 312.16 74.884C312.392 74.756 312.508 74.552 312.508 74.272C312.508 74.12 312.468 73.992 312.388 73.888C312.316 73.776 312.172 73.684 311.956 73.612C311.74 73.532 311.42 73.456 310.996 73.384C310.364 73.264 309.868 73.124 309.508 72.964C309.148 72.804 308.892 72.6 308.74 72.352C308.588 72.104 308.512 71.804 308.512 71.452C308.512 70.868 308.728 70.392 309.16 70.024C309.6 69.656 310.232 69.472 311.056 69.472C311.608 69.472 312.072 69.568 312.448 69.76C312.824 69.944 313.116 70.196 313.324 70.516C313.54 70.828 313.676 71.18 313.732 71.572L312.424 71.644C312.384 71.42 312.304 71.228 312.184 71.068C312.072 70.9 311.92 70.772 311.728 70.684C311.536 70.588 311.308 70.54 311.044 70.54C310.636 70.54 310.332 70.62 310.132 70.78C309.932 70.94 309.832 71.148 309.832 71.404C309.832 71.596 309.876 71.752 309.964 71.872C310.06 71.992 310.212 72.092 310.42 72.172C310.628 72.244 310.904 72.308 311.248 72.364C311.912 72.476 312.432 72.616 312.808 72.784C313.184 72.944 313.448 73.144 313.6 73.384C313.752 73.624 313.828 73.916 313.828 74.26C313.828 74.66 313.716 75 313.492 75.28C313.268 75.56 312.96 75.776 312.568 75.928C312.176 76.072 311.724 76.144 311.212 76.144ZM317.243 76.144C316.635 76.144 316.103 76.008 315.647 75.736C315.191 75.464 314.839 75.076 314.591 74.572C314.343 74.068 314.219 73.48 314.219 72.808C314.219 72.128 314.343 71.54 314.591 71.044C314.839 70.548 315.191 70.164 315.647 69.892C316.103 69.612 316.635 69.472 317.243 69.472C317.851 69.472 318.383 69.612 318.839 69.892C319.295 70.164 319.647 70.548 319.895 71.044C320.143 71.54 320.267 72.128 320.267 72.808C320.267 73.48 320.143 74.068 319.895 74.572C319.647 75.076 319.295 75.464 318.839 75.736C318.383 76.008 317.851 76.144 317.243 76.144ZM317.243 75.04C317.787 75.04 318.207 74.844 318.503 74.452C318.799 74.052 318.947 73.504 318.947 72.808C318.947 72.112 318.799 71.568 318.503 71.176C318.207 70.776 317.787 70.576 317.243 70.576C316.707 70.576 316.287 70.776 315.983 71.176C315.687 71.568 315.539 72.112 315.539 72.808C315.539 73.504 315.687 74.052 315.983 74.452C316.287 74.844 316.707 75.04 317.243 75.04ZM321.454 76V69.208C321.454 68.68 321.602 68.26 321.898 67.948C322.194 67.636 322.658 67.48 323.29 67.48H324.418V68.524H323.458C323.21 68.524 323.026 68.592 322.906 68.728C322.786 68.856 322.726 69.04 322.726 69.28V76H321.454ZM320.566 70.732V69.7H324.322V70.732H320.566ZM327.266 76C326.658 76 326.21 75.86 325.922 75.58C325.634 75.3 325.49 74.864 325.49 74.272V68.116H326.762V74.176C326.762 74.472 326.826 74.676 326.954 74.788C327.082 74.9 327.278 74.956 327.542 74.956H328.454V76H327.266ZM324.518 70.66V69.616H328.454V70.66H324.518ZM330.419 76L328.475 69.616H329.807L331.175 74.608L332.579 69.616H333.779L335.183 74.608L336.563 69.616H337.895L335.951 76H334.523L333.179 71.44L331.835 76H330.419ZM340.055 76.144C339.391 76.144 338.859 75.992 338.459 75.688C338.067 75.384 337.871 74.956 337.871 74.404C337.871 73.852 338.035 73.424 338.363 73.12C338.699 72.808 339.215 72.584 339.911 72.448L342.107 72.028C342.107 71.532 341.991 71.164 341.759 70.924C341.527 70.676 341.183 70.552 340.727 70.552C340.319 70.552 339.999 70.644 339.767 70.828C339.535 71.004 339.375 71.268 339.287 71.62L337.979 71.536C338.099 70.896 338.395 70.392 338.867 70.024C339.347 69.656 339.967 69.472 340.727 69.472C341.591 69.472 342.247 69.704 342.695 70.168C343.151 70.624 343.379 71.268 343.379 72.1V74.584C343.379 74.736 343.403 74.844 343.451 74.908C343.507 74.964 343.595 74.992 343.715 74.992H343.943V76C343.903 76.008 343.839 76.016 343.751 76.024C343.663 76.032 343.571 76.036 343.475 76.036C343.203 76.036 342.967 75.992 342.767 75.904C342.575 75.816 342.431 75.672 342.335 75.472C342.239 75.264 342.191 74.988 342.191 74.644L342.323 74.704C342.259 74.984 342.119 75.232 341.903 75.448C341.695 75.664 341.427 75.836 341.099 75.964C340.779 76.084 340.431 76.144 340.055 76.144ZM340.259 75.136C340.643 75.136 340.971 75.064 341.243 74.92C341.515 74.768 341.727 74.56 341.879 74.296C342.031 74.032 342.107 73.732 342.107 73.396V72.988L340.235 73.348C339.851 73.42 339.579 73.536 339.419 73.696C339.267 73.848 339.191 74.044 339.191 74.284C339.191 74.556 339.283 74.768 339.467 74.92C339.659 75.064 339.923 75.136 340.259 75.136ZM344.517 76V69.616H345.681L345.729 71.308L345.621 71.272C345.709 70.696 345.885 70.276 346.149 70.012C346.421 69.748 346.785 69.616 347.241 69.616H347.853V70.756H347.241C346.921 70.756 346.653 70.808 346.437 70.912C346.221 71.016 346.057 71.176 345.945 71.392C345.841 71.608 345.789 71.888 345.789 72.232V76H344.517ZM350.887 76.144C350.263 76.144 349.723 76.008 349.267 75.736C348.819 75.464 348.471 75.076 348.223 74.572C347.983 74.068 347.863 73.48 347.863 72.808C347.863 72.136 347.983 71.552 348.223 71.056C348.471 70.552 348.819 70.164 349.267 69.892C349.715 69.612 350.243 69.472 350.851 69.472C351.427 69.472 351.935 69.608 352.375 69.88C352.815 70.144 353.155 70.528 353.395 71.032C353.643 71.536 353.767 72.144 353.767 72.856V73.18H349.183C349.215 73.804 349.379 74.272 349.675 74.584C349.979 74.896 350.387 75.052 350.899 75.052C351.275 75.052 351.587 74.964 351.835 74.788C352.083 74.612 352.255 74.376 352.351 74.08L353.671 74.164C353.503 74.756 353.171 75.236 352.675 75.604C352.187 75.964 351.591 76.144 350.887 76.144ZM349.183 72.22H352.423C352.383 71.652 352.219 71.232 351.931 70.96C351.651 70.688 351.291 70.552 350.851 70.552C350.395 70.552 350.019 70.696 349.723 70.984C349.435 71.264 349.255 71.676 349.183 72.22Z" fill="#00367F"/>
<g clip-path="url(#clip1_10134_28086)">
<path d="M380.875 71.5H389.125" stroke="#00367F" stroke-width="1.5" stroke-linecap="round" stroke-linejoin="round"/>
<path d="M385.75 68.125L389.125 71.5L385.75 74.875" stroke="#00367F" stroke-width="1.5" stroke-linecap="round" stroke-linejoin="round"/>
</g>
<path d="M399 55C399 52.7909 400.791 51 403 51H608C610.209 51 612 52.7909 612 55V88C612 90.2091 610.209 92 608 92H403C400.791 92 399 90.2091 399 88V55Z" fill="#00367F" fill-opacity="0.16"/>
<path d="M417.74 76L420.812 67.48H422.456L425.528 76H424.148L423.368 73.78H419.888L419.12 76H417.74ZM420.296 72.604H422.972L421.628 68.716L420.296 72.604ZM428.207 76.144C427.663 76.144 427.187 76.008 426.779 75.736C426.379 75.464 426.071 75.08 425.855 74.584C425.647 74.08 425.543 73.488 425.543 72.808C425.543 72.128 425.651 71.54 425.867 71.044C426.083 70.54 426.391 70.152 426.791 69.88C427.191 69.608 427.663 69.472 428.207 69.472C428.647 69.472 429.039 69.564 429.383 69.748C429.727 69.932 429.987 70.188 430.163 70.516V67.48H431.435V76H430.247L430.211 75.04C430.035 75.384 429.767 75.656 429.407 75.856C429.055 76.048 428.655 76.144 428.207 76.144ZM428.543 75.04C428.887 75.04 429.179 74.952 429.419 74.776C429.659 74.6 429.843 74.344 429.971 74.008C430.099 73.672 430.163 73.272 430.163 72.808C430.163 72.328 430.099 71.924 429.971 71.596C429.843 71.26 429.659 71.008 429.419 70.84C429.179 70.664 428.887 70.576 428.543 70.576C428.031 70.576 427.623 70.776 427.319 71.176C427.015 71.568 426.863 72.112 426.863 72.808C426.863 73.496 427.015 74.04 427.319 74.44C427.623 74.84 428.031 75.04 428.543 75.04ZM431.604 77.8V76.756H432.18C432.396 76.756 432.564 76.708 432.684 76.612C432.812 76.516 432.876 76.332 432.876 76.06V69.616H434.16V76.108C434.16 76.716 434.02 77.148 433.74 77.404C433.468 77.668 433.012 77.8 432.372 77.8H431.604ZM432.864 68.692V67.42H434.184V68.692H432.864ZM437.34 76.144C436.7 76.144 436.188 75.932 435.804 75.508C435.428 75.076 435.24 74.48 435.24 73.72V69.616H436.512V73.396C436.512 73.972 436.612 74.396 436.812 74.668C437.012 74.94 437.316 75.076 437.724 75.076C438.188 75.076 438.548 74.928 438.804 74.632C439.068 74.328 439.2 73.904 439.2 73.36V69.616H440.472V76H439.284L439.26 74.332L439.44 74.404C439.328 74.964 439.092 75.396 438.732 75.7C438.372 75.996 437.908 76.144 437.34 76.144ZM444.114 76.144C443.514 76.144 443.006 76.052 442.59 75.868C442.182 75.684 441.866 75.432 441.642 75.112C441.418 74.784 441.29 74.408 441.258 73.984L442.566 73.924C442.63 74.276 442.782 74.556 443.022 74.764C443.262 74.972 443.626 75.076 444.114 75.076C444.514 75.076 444.83 75.012 445.062 74.884C445.294 74.756 445.41 74.552 445.41 74.272C445.41 74.12 445.37 73.992 445.29 73.888C445.218 73.776 445.074 73.684 444.858 73.612C444.642 73.532 444.322 73.456 443.898 73.384C443.266 73.264 442.77 73.124 442.41 72.964C442.05 72.804 441.794 72.6 441.642 72.352C441.49 72.104 441.414 71.804 441.414 71.452C441.414 70.868 441.63 70.392 442.062 70.024C442.502 69.656 443.134 69.472 443.958 69.472C444.51 69.472 444.974 69.568 445.35 69.76C445.726 69.944 446.018 70.196 446.226 70.516C446.442 70.828 446.578 71.18 446.634 71.572L445.326 71.644C445.286 71.42 445.206 71.228 445.086 71.068C444.974 70.9 444.822 70.772 444.63 70.684C444.438 70.588 444.21 70.54 443.946 70.54C443.538 70.54 443.234 70.62 443.034 70.78C442.834 70.94 442.734 71.148 442.734 71.404C442.734 71.596 442.778 71.752 442.866 71.872C442.962 71.992 443.114 72.092 443.322 72.172C443.53 72.244 443.806 72.308 444.15 72.364C444.814 72.476 445.334 72.616 445.71 72.784C446.086 72.944 446.35 73.144 446.502 73.384C446.654 73.624 446.73 73.916 446.73 74.26C446.73 74.66 446.618 75 446.394 75.28C446.17 75.56 445.862 75.776 445.47 75.928C445.078 76.072 444.626 76.144 444.114 76.144ZM449.731 76C449.123 76 448.675 75.86 448.387 75.58C448.099 75.3 447.955 74.864 447.955 74.272V68.116H449.227V74.176C449.227 74.472 449.291 74.676 449.419 74.788C449.547 74.9 449.743 74.956 450.007 74.956H450.919V76H449.731ZM446.983 70.66V69.616H450.919V70.66H446.983ZM454.123 77.8V69.616H455.323L455.359 70.984L455.215 70.912C455.375 70.44 455.639 70.084 456.007 69.844C456.375 69.596 456.799 69.472 457.279 69.472C457.903 69.472 458.415 69.628 458.815 69.94C459.223 70.244 459.523 70.648 459.715 71.152C459.915 71.656 460.015 72.208 460.015 72.808C460.015 73.408 459.915 73.96 459.715 74.464C459.523 74.968 459.223 75.376 458.815 75.688C458.415 75.992 457.903 76.144 457.279 76.144C456.959 76.144 456.659 76.088 456.379 75.976C456.099 75.864 455.859 75.708 455.659 75.508C455.467 75.3 455.331 75.056 455.251 74.776L455.395 74.632V77.8H454.123ZM457.051 75.04C457.563 75.04 457.963 74.844 458.251 74.452C458.547 74.06 458.695 73.512 458.695 72.808C458.695 72.104 458.547 71.556 458.251 71.164C457.963 70.772 457.563 70.576 457.051 70.576C456.715 70.576 456.423 70.66 456.175 70.828C455.927 70.988 455.735 71.236 455.599 71.572C455.463 71.908 455.395 72.32 455.395 72.808C455.395 73.296 455.459 73.708 455.587 74.044C455.723 74.38 455.915 74.632 456.163 74.8C456.419 74.96 456.715 75.04 457.051 75.04ZM462.723 76.144C462.059 76.144 461.527 75.992 461.127 75.688C460.735 75.384 460.539 74.956 460.539 74.404C460.539 73.852 460.703 73.424 461.031 73.12C461.367 72.808 461.883 72.584 462.579 72.448L464.775 72.028C464.775 71.532 464.659 71.164 464.427 70.924C464.195 70.676 463.851 70.552 463.395 70.552C462.987 70.552 462.667 70.644 462.435 70.828C462.203 71.004 462.043 71.268 461.955 71.62L460.647 71.536C460.767 70.896 461.063 70.392 461.535 70.024C462.015 69.656 462.635 69.472 463.395 69.472C464.259 69.472 464.915 69.704 465.363 70.168C465.819 70.624 466.047 71.268 466.047 72.1V74.584C466.047 74.736 466.071 74.844 466.119 74.908C466.175 74.964 466.263 74.992 466.383 74.992H466.611V76C466.571 76.008 466.507 76.016 466.419 76.024C466.331 76.032 466.239 76.036 466.143 76.036C465.871 76.036 465.635 75.992 465.435 75.904C465.243 75.816 465.099 75.672 465.003 75.472C464.907 75.264 464.859 74.988 464.859 74.644L464.991 74.704C464.927 74.984 464.787 75.232 464.571 75.448C464.363 75.664 464.095 75.836 463.767 75.964C463.447 76.084 463.099 76.144 462.723 76.144ZM462.927 75.136C463.311 75.136 463.639 75.064 463.911 74.92C464.183 74.768 464.395 74.56 464.547 74.296C464.699 74.032 464.775 73.732 464.775 73.396V72.988L462.903 73.348C462.519 73.42 462.247 73.536 462.087 73.696C461.935 73.848 461.859 74.044 461.859 74.284C461.859 74.556 461.951 74.768 462.135 74.92C462.327 75.064 462.591 75.136 462.927 75.136ZM467.185 76V69.616H468.349L468.397 71.308L468.289 71.272C468.377 70.696 468.553 70.276 468.817 70.012C469.089 69.748 469.453 69.616 469.909 69.616H470.521V70.756H469.909C469.589 70.756 469.321 70.808 469.105 70.912C468.889 71.016 468.725 71.176 468.613 71.392C468.509 71.608 468.457 71.888 468.457 72.232V76H467.185ZM472.739 76.144C472.075 76.144 471.543 75.992 471.143 75.688C470.751 75.384 470.555 74.956 470.555 74.404C470.555 73.852 470.719 73.424 471.047 73.12C471.383 72.808 471.899 72.584 472.595 72.448L474.791 72.028C474.791 71.532 474.675 71.164 474.443 70.924C474.211 70.676 473.867 70.552 473.411 70.552C473.003 70.552 472.683 70.644 472.451 70.828C472.219 71.004 472.059 71.268 471.971 71.62L470.663 71.536C470.783 70.896 471.079 70.392 471.551 70.024C472.031 69.656 472.651 69.472 473.411 69.472C474.275 69.472 474.931 69.704 475.379 70.168C475.835 70.624 476.063 71.268 476.063 72.1V74.584C476.063 74.736 476.087 74.844 476.135 74.908C476.191 74.964 476.279 74.992 476.399 74.992H476.627V76C476.587 76.008 476.523 76.016 476.435 76.024C476.347 76.032 476.255 76.036 476.159 76.036C475.887 76.036 475.651 75.992 475.451 75.904C475.259 75.816 475.115 75.672 475.019 75.472C474.923 75.264 474.875 74.988 474.875 74.644L475.007 74.704C474.943 74.984 474.803 75.232 474.587 75.448C474.379 75.664 474.111 75.836 473.783 75.964C473.463 76.084 473.115 76.144 472.739 76.144ZM472.943 75.136C473.327 75.136 473.655 75.064 473.927 74.92C474.199 74.768 474.411 74.56 474.563 74.296C474.715 74.032 474.791 73.732 474.791 73.396V72.988L472.919 73.348C472.535 73.42 472.263 73.536 472.103 73.696C471.951 73.848 471.875 74.044 471.875 74.284C471.875 74.556 471.967 74.768 472.151 74.92C472.343 75.064 472.607 75.136 472.943 75.136ZM477.201 76V69.616H478.365L478.401 71.2L478.257 71.152C478.329 70.8 478.453 70.5 478.629 70.252C478.813 70.004 479.037 69.812 479.301 69.676C479.565 69.54 479.853 69.472 480.165 69.472C480.709 69.472 481.153 69.628 481.497 69.94C481.841 70.244 482.057 70.664 482.145 71.2H481.941C482.013 70.824 482.133 70.512 482.301 70.264C482.477 70.008 482.701 69.812 482.973 69.676C483.245 69.54 483.553 69.472 483.897 69.472C484.345 69.472 484.725 69.568 485.037 69.76C485.357 69.944 485.597 70.216 485.757 70.576C485.925 70.936 486.009 71.376 486.009 71.896V76H484.737V72.208C484.737 71.656 484.637 71.24 484.437 70.96C484.237 70.68 483.933 70.54 483.525 70.54C483.261 70.54 483.029 70.608 482.829 70.744C482.629 70.88 482.473 71.076 482.361 71.332C482.257 71.588 482.205 71.896 482.205 72.256V76H480.993V72.256C480.993 71.712 480.901 71.292 480.717 70.996C480.541 70.692 480.237 70.54 479.805 70.54C479.533 70.54 479.297 70.608 479.097 70.744C478.905 70.88 478.753 71.08 478.641 71.344C478.529 71.6 478.473 71.904 478.473 72.256V76H477.201ZM489.805 76.144C489.181 76.144 488.641 76.008 488.185 75.736C487.737 75.464 487.389 75.076 487.141 74.572C486.901 74.068 486.781 73.48 486.781 72.808C486.781 72.136 486.901 71.552 487.141 71.056C487.389 70.552 487.737 70.164 488.185 69.892C488.633 69.612 489.161 69.472 489.769 69.472C490.345 69.472 490.853 69.608 491.293 69.88C491.733 70.144 492.073 70.528 492.313 71.032C492.561 71.536 492.685 72.144 492.685 72.856V73.18H488.101C488.133 73.804 488.297 74.272 488.593 74.584C488.897 74.896 489.305 75.052 489.817 75.052C490.193 75.052 490.505 74.964 490.753 74.788C491.001 74.612 491.173 74.376 491.269 74.08L492.589 74.164C492.421 74.756 492.089 75.236 491.593 75.604C491.105 75.964 490.509 76.144 489.805 76.144ZM488.101 72.22H491.341C491.301 71.652 491.137 71.232 490.849 70.96C490.569 70.688 490.209 70.552 489.769 70.552C489.313 70.552 488.937 70.696 488.641 70.984C488.353 71.264 488.173 71.676 488.101 72.22ZM495.688 76C495.08 76 494.632 75.86 494.344 75.58C494.056 75.3 493.912 74.864 493.912 74.272V68.116H495.184V74.176C495.184 74.472 495.248 74.676 495.376 74.788C495.504 74.9 495.7 74.956 495.964 74.956H496.876V76H495.688ZM492.94 70.66V69.616H496.876V70.66H492.94ZM500.114 76.144C499.49 76.144 498.95 76.008 498.494 75.736C498.046 75.464 497.698 75.076 497.45 74.572C497.21 74.068 497.09 73.48 497.09 72.808C497.09 72.136 497.21 71.552 497.45 71.056C497.698 70.552 498.046 70.164 498.494 69.892C498.942 69.612 499.47 69.472 500.078 69.472C500.654 69.472 501.162 69.608 501.602 69.88C502.042 70.144 502.382 70.528 502.622 71.032C502.87 71.536 502.994 72.144 502.994 72.856V73.18H498.41C498.442 73.804 498.606 74.272 498.902 74.584C499.206 74.896 499.614 75.052 500.126 75.052C500.502 75.052 500.814 74.964 501.062 74.788C501.31 74.612 501.482 74.376 501.578 74.08L502.898 74.164C502.73 74.756 502.398 75.236 501.902 75.604C501.414 75.964 500.818 76.144 500.114 76.144ZM498.41 72.22H501.65C501.61 71.652 501.446 71.232 501.158 70.96C500.878 70.688 500.518 70.552 500.078 70.552C499.622 70.552 499.246 70.696 498.95 70.984C498.662 71.264 498.482 71.676 498.41 72.22ZM503.783 76V69.616H504.947L504.995 71.308L504.887 71.272C504.975 70.696 505.151 70.276 505.415 70.012C505.687 69.748 506.051 69.616 506.507 69.616H507.119V70.756H506.507C506.187 70.756 505.919 70.808 505.703 70.912C505.487 71.016 505.323 71.176 505.211 71.392C505.107 71.608 505.055 71.888 505.055 72.232V76H503.783ZM509.985 76.144C509.385 76.144 508.877 76.052 508.461 75.868C508.053 75.684 507.737 75.432 507.513 75.112C507.289 74.784 507.161 74.408 507.129 73.984L508.437 73.924C508.501 74.276 508.653 74.556 508.893 74.764C509.133 74.972 509.497 75.076 509.985 75.076C510.385 75.076 510.701 75.012 510.933 74.884C511.165 74.756 511.281 74.552 511.281 74.272C511.281 74.12 511.241 73.992 511.161 73.888C511.089 73.776 510.945 73.684 510.729 73.612C510.513 73.532 510.193 73.456 509.769 73.384C509.137 73.264 508.641 73.124 508.281 72.964C507.921 72.804 507.665 72.6 507.513 72.352C507.361 72.104 507.285 71.804 507.285 71.452C507.285 70.868 507.501 70.392 507.933 70.024C508.373 69.656 509.005 69.472 509.829 69.472C510.381 69.472 510.845 69.568 511.221 69.76C511.597 69.944 511.889 70.196 512.097 70.516C512.313 70.828 512.449 71.18 512.505 71.572L511.197 71.644C511.157 71.42 511.077 71.228 510.957 71.068C510.845 70.9 510.693 70.772 510.501 70.684C510.309 70.588 510.081 70.54 509.817 70.54C509.409 70.54 509.105 70.62 508.905 70.78C508.705 70.94 508.605 71.148 508.605 71.404C508.605 71.596 508.649 71.752 508.737 71.872C508.833 71.992 508.985 72.092 509.193 72.172C509.401 72.244 509.677 72.308 510.021 72.364C510.685 72.476 511.205 72.616 511.581 72.784C511.957 72.944 512.221 73.144 512.373 73.384C512.525 73.624 512.601 73.916 512.601 74.26C512.601 74.66 512.489 75 512.265 75.28C512.041 75.56 511.733 75.776 511.341 75.928C510.949 76.072 510.497 76.144 509.985 76.144ZM515.923 76V69.616H517.195V76H515.923ZM515.899 68.692V67.42H517.219V68.692H515.899ZM518.599 76V69.616H519.763L519.811 71.32L519.655 71.236C519.727 70.82 519.863 70.484 520.063 70.228C520.263 69.972 520.507 69.784 520.795 69.664C521.083 69.536 521.395 69.472 521.731 69.472C522.211 69.472 522.607 69.58 522.919 69.796C523.239 70.004 523.479 70.292 523.639 70.66C523.807 71.02 523.891 71.432 523.891 71.896V76H522.619V72.28C522.619 71.904 522.579 71.588 522.499 71.332C522.419 71.076 522.287 70.88 522.103 70.744C521.919 70.608 521.679 70.54 521.383 70.54C520.935 70.54 520.571 70.688 520.291 70.984C520.011 71.28 519.871 71.712 519.871 72.28V76H518.599ZM530.055 76C529.447 76 528.999 75.86 528.711 75.58C528.423 75.3 528.279 74.864 528.279 74.272V68.116H529.551V74.176C529.551 74.472 529.615 74.676 529.743 74.788C529.871 74.9 530.067 74.956 530.331 74.956H531.243V76H530.055ZM527.307 70.66V69.616H531.243V70.66H527.307ZM531.959 76V67.48H533.231V71.056L533.075 71.032C533.147 70.672 533.279 70.38 533.471 70.156C533.663 69.924 533.899 69.752 534.179 69.64C534.459 69.528 534.767 69.472 535.103 69.472C535.567 69.472 535.959 69.576 536.279 69.784C536.599 69.984 536.839 70.268 536.999 70.636C537.167 71.004 537.251 71.424 537.251 71.896V76H535.979V72.232C535.979 71.656 535.879 71.232 535.679 70.96C535.487 70.68 535.183 70.54 534.767 70.54C534.303 70.54 533.931 70.688 533.651 70.984C533.371 71.272 533.231 71.696 533.231 72.256V76H531.959ZM541.036 76.144C540.412 76.144 539.872 76.008 539.416 75.736C538.968 75.464 538.62 75.076 538.372 74.572C538.132 74.068 538.012 73.48 538.012 72.808C538.012 72.136 538.132 71.552 538.372 71.056C538.62 70.552 538.968 70.164 539.416 69.892C539.864 69.612 540.392 69.472 541 69.472C541.576 69.472 542.084 69.608 542.524 69.88C542.964 70.144 543.304 70.528 543.544 71.032C543.792 71.536 543.916 72.144 543.916 72.856V73.18H539.332C539.364 73.804 539.528 74.272 539.824 74.584C540.128 74.896 540.536 75.052 541.048 75.052C541.424 75.052 541.736 74.964 541.984 74.788C542.232 74.612 542.404 74.376 542.5 74.08L543.82 74.164C543.652 74.756 543.32 75.236 542.824 75.604C542.336 75.964 541.74 76.144 541.036 76.144ZM539.332 72.22H542.572C542.532 71.652 542.368 71.232 542.08 70.96C541.8 70.688 541.44 70.552 541 70.552C540.544 70.552 540.168 70.696 539.872 70.984C539.584 71.264 539.404 71.676 539.332 72.22ZM547.24 76V69.616H548.512V76H547.24ZM547.216 68.692V67.42H548.536V68.692H547.216ZM549.916 76V69.616H551.08L551.128 71.32L550.972 71.236C551.044 70.82 551.18 70.484 551.38 70.228C551.58 69.972 551.824 69.784 552.112 69.664C552.4 69.536 552.712 69.472 553.048 69.472C553.528 69.472 553.924 69.58 554.236 69.796C554.556 70.004 554.796 70.292 554.956 70.66C555.124 71.02 555.208 71.432 555.208 71.896V76H553.936V72.28C553.936 71.904 553.896 71.588 553.816 71.332C553.736 71.076 553.604 70.88 553.42 70.744C553.236 70.608 552.996 70.54 552.7 70.54C552.252 70.54 551.888 70.688 551.608 70.984C551.328 71.28 551.188 71.712 551.188 72.28V76H549.916ZM558.496 76C557.888 76 557.44 75.86 557.152 75.58C556.864 75.3 556.72 74.864 556.72 74.272V68.116H557.992V74.176C557.992 74.472 558.056 74.676 558.184 74.788C558.312 74.9 558.508 74.956 558.772 74.956H559.684V76H558.496ZM555.748 70.66V69.616H559.684V70.66H555.748ZM562.923 76.144C562.299 76.144 561.759 76.008 561.303 75.736C560.855 75.464 560.507 75.076 560.259 74.572C560.019 74.068 559.899 73.48 559.899 72.808C559.899 72.136 560.019 71.552 560.259 71.056C560.507 70.552 560.855 70.164 561.303 69.892C561.751 69.612 562.279 69.472 562.887 69.472C563.463 69.472 563.971 69.608 564.411 69.88C564.851 70.144 565.191 70.528 565.431 71.032C565.679 71.536 565.803 72.144 565.803 72.856V73.18H561.219C561.251 73.804 561.415 74.272 561.711 74.584C562.015 74.896 562.423 75.052 562.935 75.052C563.311 75.052 563.623 74.964 563.871 74.788C564.119 74.612 564.291 74.376 564.387 74.08L565.707 74.164C565.539 74.756 565.207 75.236 564.711 75.604C564.223 75.964 563.627 76.144 562.923 76.144ZM561.219 72.22H564.459C564.419 71.652 564.255 71.232 563.967 70.96C563.687 70.688 563.327 70.552 562.887 70.552C562.431 70.552 562.055 70.696 561.759 70.984C561.471 71.264 561.291 71.676 561.219 72.22ZM566.591 76V69.616H567.755L567.803 71.308L567.695 71.272C567.783 70.696 567.959 70.276 568.223 70.012C568.495 69.748 568.859 69.616 569.315 69.616H569.927V70.756H569.315C568.995 70.756 568.727 70.808 568.511 70.912C568.295 71.016 568.131 71.176 568.019 71.392C567.915 71.608 567.863 71.888 567.863 72.232V76H566.591ZM570.935 76V69.208C570.935 68.68 571.083 68.26 571.379 67.948C571.675 67.636 572.139 67.48 572.771 67.48H573.899V68.524H572.939C572.691 68.524 572.507 68.592 572.387 68.728C572.267 68.856 572.207 69.04 572.207 69.28V76H570.935ZM570.047 70.732V69.7H573.803V70.732H570.047ZM576.157 76.144C575.493 76.144 574.961 75.992 574.561 75.688C574.169 75.384 573.973 74.956 573.973 74.404C573.973 73.852 574.137 73.424 574.465 73.12C574.801 72.808 575.317 72.584 576.013 72.448L578.209 72.028C578.209 71.532 578.093 71.164 577.861 70.924C577.629 70.676 577.285 70.552 576.829 70.552C576.421 70.552 576.101 70.644 575.869 70.828C575.637 71.004 575.477 71.268 575.389 71.62L574.081 71.536C574.201 70.896 574.497 70.392 574.969 70.024C575.449 69.656 576.069 69.472 576.829 69.472C577.693 69.472 578.349 69.704 578.797 70.168C579.253 70.624 579.481 71.268 579.481 72.1V74.584C579.481 74.736 579.505 74.844 579.553 74.908C579.609 74.964 579.697 74.992 579.817 74.992H580.045V76C580.005 76.008 579.941 76.016 579.853 76.024C579.765 76.032 579.673 76.036 579.577 76.036C579.305 76.036 579.069 75.992 578.869 75.904C578.677 75.816 578.533 75.672 578.437 75.472C578.341 75.264 578.293 74.988 578.293 74.644L578.425 74.704C578.361 74.984 578.221 75.232 578.005 75.448C577.797 75.664 577.529 75.836 577.201 75.964C576.881 76.084 576.533 76.144 576.157 76.144ZM576.361 75.136C576.745 75.136 577.073 75.064 577.345 74.92C577.617 74.768 577.829 74.56 577.981 74.296C578.133 74.032 578.209 73.732 578.209 73.396V72.988L576.337 73.348C575.953 73.42 575.681 73.536 575.521 73.696C575.369 73.848 575.293 74.044 575.293 74.284C575.293 74.556 575.385 74.768 575.569 74.92C575.761 75.064 576.025 75.136 576.361 75.136ZM583.2 76.144C582.592 76.144 582.06 76.008 581.604 75.736C581.148 75.464 580.796 75.076 580.548 74.572C580.3 74.068 580.176 73.48 580.176 72.808C580.176 72.136 580.3 71.552 580.548 71.056C580.796 70.552 581.148 70.164 581.604 69.892C582.06 69.612 582.592 69.472 583.2 69.472C583.72 69.472 584.18 69.564 584.58 69.748C584.988 69.924 585.316 70.184 585.564 70.528C585.82 70.872 585.984 71.292 586.056 71.788L584.724 71.86C584.66 71.444 584.492 71.128 584.22 70.912C583.948 70.688 583.608 70.576 583.2 70.576C582.664 70.576 582.244 70.776 581.94 71.176C581.644 71.568 581.496 72.112 581.496 72.808C581.496 73.504 581.644 74.052 581.94 74.452C582.244 74.844 582.664 75.04 583.2 75.04C583.608 75.04 583.948 74.928 584.22 74.704C584.492 74.472 584.66 74.124 584.724 73.66L586.056 73.732C585.984 74.22 585.82 74.644 585.564 75.004C585.316 75.364 584.988 75.644 584.58 75.844C584.18 76.044 583.72 76.144 583.2 76.144ZM589.344 76.144C588.72 76.144 588.18 76.008 587.724 75.736C587.276 75.464 586.928 75.076 586.68 74.572C586.44 74.068 586.32 73.48 586.32 72.808C586.32 72.136 586.44 71.552 586.68 71.056C586.928 70.552 587.276 70.164 587.724 69.892C588.172 69.612 588.7 69.472 589.308 69.472C589.884 69.472 590.392 69.608 590.832 69.88C591.272 70.144 591.612 70.528 591.852 71.032C592.1 71.536 592.224 72.144 592.224 72.856V73.18H587.64C587.672 73.804 587.836 74.272 588.132 74.584C588.436 74.896 588.844 75.052 589.356 75.052C589.732 75.052 590.044 74.964 590.292 74.788C590.54 74.612 590.712 74.376 590.808 74.08L592.128 74.164C591.96 74.756 591.628 75.236 591.132 75.604C590.644 75.964 590.048 76.144 589.344 76.144ZM587.64 72.22H590.88C590.84 71.652 590.676 71.232 590.388 70.96C590.108 70.688 589.748 70.552 589.308 70.552C588.852 70.552 588.476 70.696 588.18 70.984C587.892 71.264 587.712 71.676 587.64 72.22Z" fill="#00367F"/>
<g clip-path="url(#clip2_10134_28086)">
<path d="M621.875 71.5H630.125" stroke="#00367F" stroke-width="1.5" stroke-linecap="round" stroke-linejoin="round"/>
<path d="M626.75 68.125L630.125 71.5L626.75 74.875" stroke="#00367F" stroke-width="1.5" stroke-linecap="round" stroke-linejoin="round"/>
</g>
<path d="M640 55C640 52.7909 641.791 51 644 51H765C767.209 51 769 52.7909 769 55V88C769 90.2091 767.209 92 765 92H644C641.791 92 640 90.2091 640 88V55Z" fill="#00367F" fill-opacity="0.16"/>
<path d="M657.032 76V67.48H660.428C661.036 67.48 661.56 67.584 662 67.792C662.44 68 662.78 68.296 663.02 68.68C663.26 69.064 663.38 69.52 663.38 70.048C663.38 70.432 663.292 70.776 663.116 71.08C662.948 71.384 662.72 71.628 662.432 71.812C662.152 71.988 661.852 72.088 661.532 72.112L661.472 72.004C662.008 72.004 662.424 72.128 662.72 72.376C663.016 72.616 663.188 72.996 663.236 73.516L663.464 76H662.156L661.952 73.684C661.928 73.34 661.812 73.088 661.604 72.928C661.396 72.76 661.056 72.676 660.584 72.676H658.328V76H657.032ZM658.328 71.488H660.452C660.94 71.488 661.324 71.368 661.604 71.128C661.892 70.88 662.036 70.532 662.036 70.084C662.036 69.628 661.892 69.28 661.604 69.04C661.316 68.792 660.896 68.668 660.344 68.668H658.328V71.488ZM666.539 76.144C665.899 76.144 665.387 75.932 665.003 75.508C664.627 75.076 664.439 74.48 664.439 73.72V69.616H665.711V73.396C665.711 73.972 665.811 74.396 666.011 74.668C666.211 74.94 666.515 75.076 666.923 75.076C667.387 75.076 667.747 74.928 668.003 74.632C668.267 74.328 668.399 73.904 668.399 73.36V69.616H669.671V76H668.483L668.459 74.332L668.639 74.404C668.527 74.964 668.291 75.396 667.931 75.7C667.571 75.996 667.107 76.144 666.539 76.144ZM670.97 76V69.616H672.134L672.182 71.32L672.026 71.236C672.098 70.82 672.234 70.484 672.434 70.228C672.634 69.972 672.878 69.784 673.166 69.664C673.454 69.536 673.766 69.472 674.102 69.472C674.582 69.472 674.978 69.58 675.29 69.796C675.61 70.004 675.85 70.292 676.01 70.66C676.178 71.02 676.262 71.432 676.262 71.896V76H674.99V72.28C674.99 71.904 674.95 71.588 674.87 71.332C674.79 71.076 674.658 70.88 674.474 70.744C674.29 70.608 674.05 70.54 673.754 70.54C673.306 70.54 672.942 70.688 672.662 70.984C672.382 71.28 672.242 71.712 672.242 72.28V76H670.97ZM682.606 76.144C681.998 76.144 681.466 76.008 681.01 75.736C680.554 75.464 680.202 75.076 679.954 74.572C679.706 74.068 679.582 73.48 679.582 72.808C679.582 72.128 679.706 71.54 679.954 71.044C680.202 70.548 680.554 70.164 681.01 69.892C681.466 69.612 681.998 69.472 682.606 69.472C683.214 69.472 683.746 69.612 684.202 69.892C684.658 70.164 685.01 70.548 685.258 71.044C685.506 71.54 685.63 72.128 685.63 72.808C685.63 73.48 685.506 74.068 685.258 74.572C685.01 75.076 684.658 75.464 684.202 75.736C683.746 76.008 683.214 76.144 682.606 76.144ZM682.606 75.04C683.15 75.04 683.57 74.844 683.866 74.452C684.162 74.052 684.31 73.504 684.31 72.808C684.31 72.112 684.162 71.568 683.866 71.176C683.57 70.776 683.15 70.576 682.606 70.576C682.07 70.576 681.65 70.776 681.346 71.176C681.05 71.568 680.902 72.112 680.902 72.808C680.902 73.504 681.05 74.052 681.346 74.452C681.65 74.844 682.07 75.04 682.606 75.04ZM686.416 76V69.616H687.58L687.628 71.308L687.52 71.272C687.608 70.696 687.784 70.276 688.048 70.012C688.32 69.748 688.684 69.616 689.14 69.616H689.752V70.756H689.14C688.82 70.756 688.552 70.808 688.336 70.912C688.12 71.016 687.956 71.176 687.844 71.392C687.74 71.608 687.688 71.888 687.688 72.232V76H686.416ZM695.504 76C694.896 76 694.448 75.86 694.16 75.58C693.872 75.3 693.728 74.864 693.728 74.272V68.116H695V74.176C695 74.472 695.064 74.676 695.192 74.788C695.32 74.9 695.516 74.956 695.78 74.956H696.692V76H695.504ZM692.756 70.66V69.616H696.692V70.66H692.756ZM699.93 76.144C699.306 76.144 698.766 76.008 698.31 75.736C697.862 75.464 697.514 75.076 697.266 74.572C697.026 74.068 696.906 73.48 696.906 72.808C696.906 72.136 697.026 71.552 697.266 71.056C697.514 70.552 697.862 70.164 698.31 69.892C698.758 69.612 699.286 69.472 699.894 69.472C700.47 69.472 700.978 69.608 701.418 69.88C701.858 70.144 702.198 70.528 702.438 71.032C702.686 71.536 702.81 72.144 702.81 72.856V73.18H698.226C698.258 73.804 698.422 74.272 698.718 74.584C699.022 74.896 699.43 75.052 699.942 75.052C700.318 75.052 700.63 74.964 700.878 74.788C701.126 74.612 701.298 74.376 701.394 74.08L702.714 74.164C702.546 74.756 702.214 75.236 701.718 75.604C701.23 75.964 700.634 76.144 699.93 76.144ZM698.226 72.22H701.466C701.426 71.652 701.262 71.232 700.974 70.96C700.694 70.688 700.334 70.552 699.894 70.552C699.438 70.552 699.062 70.696 698.766 70.984C698.478 71.264 698.298 71.676 698.226 72.22ZM706.059 76.144C705.459 76.144 704.951 76.052 704.535 75.868C704.127 75.684 703.811 75.432 703.587 75.112C703.363 74.784 703.235 74.408 703.203 73.984L704.511 73.924C704.575 74.276 704.727 74.556 704.967 74.764C705.207 74.972 705.571 75.076 706.059 75.076C706.459 75.076 706.775 75.012 707.007 74.884C707.239 74.756 707.355 74.552 707.355 74.272C707.355 74.12 707.315 73.992 707.235 73.888C707.163 73.776 707.019 73.684 706.803 73.612C706.587 73.532 706.267 73.456 705.843 73.384C705.211 73.264 704.715 73.124 704.355 72.964C703.995 72.804 703.739 72.6 703.587 72.352C703.435 72.104 703.359 71.804 703.359 71.452C703.359 70.868 703.575 70.392 704.007 70.024C704.447 69.656 705.079 69.472 705.903 69.472C706.455 69.472 706.919 69.568 707.295 69.76C707.671 69.944 707.963 70.196 708.171 70.516C708.387 70.828 708.523 71.18 708.579 71.572L707.271 71.644C707.231 71.42 707.151 71.228 707.031 71.068C706.919 70.9 706.767 70.772 706.575 70.684C706.383 70.588 706.155 70.54 705.891 70.54C705.483 70.54 705.179 70.62 704.979 70.78C704.779 70.94 704.679 71.148 704.679 71.404C704.679 71.596 704.723 71.752 704.811 71.872C704.907 71.992 705.059 72.092 705.267 72.172C705.475 72.244 705.751 72.308 706.095 72.364C706.759 72.476 707.279 72.616 707.655 72.784C708.031 72.944 708.295 73.144 708.447 73.384C708.599 73.624 708.675 73.916 708.675 74.26C708.675 74.66 708.563 75 708.339 75.28C708.115 75.56 707.807 75.776 707.415 75.928C707.023 76.072 706.571 76.144 706.059 76.144ZM711.676 76C711.068 76 710.62 75.86 710.332 75.58C710.044 75.3 709.9 74.864 709.9 74.272V68.116H711.172V74.176C711.172 74.472 711.236 74.676 711.364 74.788C711.492 74.9 711.688 74.956 711.952 74.956H712.864V76H711.676ZM708.928 70.66V69.616H712.864V70.66H708.928ZM718.636 77.944C718.132 77.944 717.688 77.868 717.304 77.716C716.92 77.564 716.604 77.348 716.356 77.068C716.108 76.796 715.94 76.476 715.852 76.108L717.172 76.024C717.26 76.288 717.412 76.496 717.628 76.648C717.852 76.808 718.188 76.888 718.636 76.888C719.164 76.888 719.568 76.776 719.848 76.552C720.136 76.328 720.28 75.988 720.28 75.532V74.608C720.128 74.936 719.884 75.196 719.548 75.388C719.212 75.58 718.836 75.676 718.42 75.676C717.884 75.676 717.408 75.544 716.992 75.28C716.576 75.016 716.252 74.652 716.02 74.188C715.788 73.724 715.672 73.188 715.672 72.58C715.672 71.964 715.784 71.424 716.008 70.96C716.24 70.496 716.56 70.132 716.968 69.868C717.384 69.604 717.852 69.472 718.372 69.472C718.828 69.472 719.228 69.576 719.572 69.784C719.924 69.992 720.176 70.272 720.328 70.624V69.616H721.552V75.496C721.552 76.024 721.432 76.468 721.192 76.828C720.96 77.196 720.624 77.472 720.184 77.656C719.752 77.848 719.236 77.944 718.636 77.944ZM718.624 74.596C719.12 74.596 719.516 74.416 719.812 74.056C720.116 73.696 720.272 73.2 720.28 72.568C720.288 72.152 720.224 71.796 720.088 71.5C719.952 71.196 719.756 70.964 719.5 70.804C719.252 70.636 718.96 70.552 718.624 70.552C718.104 70.552 717.7 70.736 717.412 71.104C717.132 71.464 716.992 71.952 716.992 72.568C716.992 73.192 717.136 73.688 717.424 74.056C717.72 74.416 718.12 74.596 718.624 74.596ZM722.857 76V69.616H724.021L724.069 71.308L723.961 71.272C724.049 70.696 724.225 70.276 724.489 70.012C724.761 69.748 725.125 69.616 725.581 69.616H726.193V70.756H725.581C725.261 70.756 724.993 70.808 724.777 70.912C724.561 71.016 724.397 71.176 724.285 71.392C724.181 71.608 724.129 71.888 724.129 72.232V76H722.857ZM726.74 76V69.616H728.012V76H726.74ZM726.716 68.692V67.42H728.036V68.692H726.716ZM729.416 77.8V69.616H730.616L730.652 70.984L730.508 70.912C730.668 70.44 730.932 70.084 731.3 69.844C731.668 69.596 732.092 69.472 732.572 69.472C733.196 69.472 733.708 69.628 734.108 69.94C734.516 70.244 734.816 70.648 735.008 71.152C735.208 71.656 735.308 72.208 735.308 72.808C735.308 73.408 735.208 73.96 735.008 74.464C734.816 74.968 734.516 75.376 734.108 75.688C733.708 75.992 733.196 76.144 732.572 76.144C732.252 76.144 731.952 76.088 731.672 75.976C731.392 75.864 731.152 75.708 730.952 75.508C730.76 75.3 730.624 75.056 730.544 74.776L730.688 74.632V77.8H729.416ZM732.344 75.04C732.856 75.04 733.256 74.844 733.544 74.452C733.84 74.06 733.988 73.512 733.988 72.808C733.988 72.104 733.84 71.556 733.544 71.164C733.256 70.772 732.856 70.576 732.344 70.576C732.008 70.576 731.716 70.66 731.468 70.828C731.22 70.988 731.028 71.236 730.892 71.572C730.756 71.908 730.688 72.32 730.688 72.808C730.688 73.296 730.752 73.708 730.88 74.044C731.016 74.38 731.208 74.632 731.456 74.8C731.712 74.96 732.008 75.04 732.344 75.04ZM736.099 77.8V69.616H737.299L737.335 70.984L737.191 70.912C737.351 70.44 737.615 70.084 737.983 69.844C738.351 69.596 738.775 69.472 739.255 69.472C739.879 69.472 740.391 69.628 740.791 69.94C741.199 70.244 741.499 70.648 741.691 71.152C741.891 71.656 741.991 72.208 741.991 72.808C741.991 73.408 741.891 73.96 741.691 74.464C741.499 74.968 741.199 75.376 740.791 75.688C740.391 75.992 739.879 76.144 739.255 76.144C738.935 76.144 738.635 76.088 738.355 75.976C738.075 75.864 737.835 75.708 737.635 75.508C737.443 75.3 737.307 75.056 737.227 74.776L737.371 74.632V77.8H736.099ZM739.027 75.04C739.539 75.04 739.939 74.844 740.227 74.452C740.523 74.06 740.671 73.512 740.671 72.808C740.671 72.104 740.523 71.556 740.227 71.164C739.939 70.772 739.539 70.576 739.027 70.576C738.691 70.576 738.399 70.66 738.151 70.828C737.903 70.988 737.711 71.236 737.575 71.572C737.439 71.908 737.371 72.32 737.371 72.808C737.371 73.296 737.435 73.708 737.563 74.044C737.699 74.38 737.891 74.632 738.139 74.8C738.395 74.96 738.691 75.04 739.027 75.04ZM745.411 76.144C744.787 76.144 744.247 76.008 743.791 75.736C743.343 75.464 742.995 75.076 742.747 74.572C742.507 74.068 742.387 73.48 742.387 72.808C742.387 72.136 742.507 71.552 742.747 71.056C742.995 70.552 743.343 70.164 743.791 69.892C744.239 69.612 744.767 69.472 745.375 69.472C745.951 69.472 746.459 69.608 746.899 69.88C747.339 70.144 747.679 70.528 747.919 71.032C748.167 71.536 748.291 72.144 748.291 72.856V73.18H743.707C743.739 73.804 743.903 74.272 744.199 74.584C744.503 74.896 744.911 75.052 745.423 75.052C745.799 75.052 746.111 74.964 746.359 74.788C746.607 74.612 746.779 74.376 746.875 74.08L748.195 74.164C748.027 74.756 747.695 75.236 747.199 75.604C746.711 75.964 746.115 76.144 745.411 76.144ZM743.707 72.22H746.947C746.907 71.652 746.743 71.232 746.455 70.96C746.175 70.688 745.815 70.552 745.375 70.552C744.919 70.552 744.543 70.696 744.247 70.984C743.959 71.264 743.779 71.676 743.707 72.22ZM749.08 76V69.616H750.244L750.292 71.308L750.184 71.272C750.272 70.696 750.448 70.276 750.712 70.012C750.984 69.748 751.348 69.616 751.804 69.616H752.416V70.756H751.804C751.484 70.756 751.216 70.808 751 70.912C750.784 71.016 750.62 71.176 750.508 71.392C750.404 71.608 750.352 71.888 750.352 72.232V76H749.08Z" fill="#00367F"/>
<g clip-path="url(#clip3_10134_28086)">
<path d="M778.875 71.5H787.125" stroke="#00367F" stroke-width="1.5" stroke-linecap="round" stroke-linejoin="round"/>
<path d="M783.75 68.125L787.125 71.5L783.75 74.875" stroke="#00367F" stroke-width="1.5" stroke-linecap="round" stroke-linejoin="round"/>
</g>
<path d="M797 55C797 52.7909 798.791 51 801 51H995C997.209 51 999 52.7909 999 55V88C999 90.2091 997.209 92 995 92H801C798.791 92 797 90.2091 797 88V55Z" fill="#00367F" fill-opacity="0.16"/>
<path d="M817.38 76.192C816.572 76.192 815.88 76.004 815.304 75.628C814.728 75.244 814.288 74.72 813.984 74.056C813.68 73.384 813.528 72.616 813.528 71.752C813.528 70.896 813.68 70.132 813.984 69.46C814.296 68.788 814.744 68.26 815.328 67.876C815.912 67.484 816.612 67.288 817.428 67.288C818.124 67.288 818.712 67.412 819.192 67.66C819.68 67.908 820.064 68.248 820.344 68.68C820.632 69.112 820.832 69.604 820.944 70.156L819.588 70.228C819.492 69.708 819.276 69.288 818.94 68.968C818.604 68.64 818.1 68.476 817.428 68.476C816.836 68.476 816.352 68.624 815.976 68.92C815.6 69.216 815.32 69.612 815.136 70.108C814.96 70.604 814.872 71.152 814.872 71.752C814.872 72.376 814.96 72.932 815.136 73.42C815.32 73.908 815.6 74.296 815.976 74.584C816.36 74.864 816.848 75.004 817.44 75.004C817.904 75.004 818.304 74.904 818.64 74.704C818.976 74.504 819.236 74.232 819.42 73.888C819.612 73.544 819.716 73.164 819.732 72.748H817.452V71.656H820.968V76H820.08L819.996 74.08L820.164 74.224C820.076 74.608 819.896 74.948 819.624 75.244C819.352 75.54 819.02 75.772 818.628 75.94C818.244 76.108 817.828 76.192 817.38 76.192ZM824.7 76.144C824.076 76.144 823.536 76.008 823.08 75.736C822.632 75.464 822.284 75.076 822.036 74.572C821.796 74.068 821.676 73.48 821.676 72.808C821.676 72.136 821.796 71.552 822.036 71.056C822.284 70.552 822.632 70.164 823.08 69.892C823.528 69.612 824.056 69.472 824.664 69.472C825.24 69.472 825.748 69.608 826.188 69.88C826.628 70.144 826.968 70.528 827.208 71.032C827.456 71.536 827.58 72.144 827.58 72.856V73.18H822.996C823.028 73.804 823.192 74.272 823.488 74.584C823.792 74.896 824.2 75.052 824.712 75.052C825.088 75.052 825.4 74.964 825.648 74.788C825.896 74.612 826.068 74.376 826.164 74.08L827.484 74.164C827.316 74.756 826.984 75.236 826.488 75.604C826 75.964 825.404 76.144 824.7 76.144ZM822.996 72.22H826.236C826.196 71.652 826.032 71.232 825.744 70.96C825.464 70.688 825.104 70.552 824.664 70.552C824.208 70.552 823.832 70.696 823.536 70.984C823.248 71.264 823.068 71.676 822.996 72.22ZM830.582 76C829.974 76 829.526 75.86 829.238 75.58C828.95 75.3 828.806 74.864 828.806 74.272V68.116H830.078V74.176C830.078 74.472 830.142 74.676 830.27 74.788C830.398 74.9 830.594 74.956 830.858 74.956H831.77V76H830.582ZM827.834 70.66V69.616H831.77V70.66H827.834ZM835.622 76V69.208C835.622 68.68 835.77 68.26 836.066 67.948C836.362 67.636 836.826 67.48 837.458 67.48H838.586V68.524H837.626C837.378 68.524 837.194 68.592 837.074 68.728C836.954 68.856 836.894 69.04 836.894 69.28V76H835.622ZM834.734 70.732V69.7H838.49V70.732H834.734ZM841.544 76.144C840.92 76.144 840.38 76.008 839.924 75.736C839.476 75.464 839.128 75.076 838.88 74.572C838.64 74.068 838.52 73.48 838.52 72.808C838.52 72.136 838.64 71.552 838.88 71.056C839.128 70.552 839.476 70.164 839.924 69.892C840.372 69.612 840.9 69.472 841.508 69.472C842.084 69.472 842.592 69.608 843.032 69.88C843.472 70.144 843.812 70.528 844.052 71.032C844.3 71.536 844.424 72.144 844.424 72.856V73.18H839.84C839.872 73.804 840.036 74.272 840.332 74.584C840.636 74.896 841.044 75.052 841.556 75.052C841.932 75.052 842.244 74.964 842.492 74.788C842.74 74.612 842.912 74.376 843.008 74.08L844.328 74.164C844.16 74.756 843.828 75.236 843.332 75.604C842.844 75.964 842.248 76.144 841.544 76.144ZM839.84 72.22H843.08C843.04 71.652 842.876 71.232 842.588 70.96C842.308 70.688 841.948 70.552 841.508 70.552C841.052 70.552 840.676 70.696 840.38 70.984C840.092 71.264 839.912 71.676 839.84 72.22ZM847.84 76.144C847.217 76.144 846.677 76.008 846.221 75.736C845.773 75.464 845.425 75.076 845.177 74.572C844.937 74.068 844.817 73.48 844.817 72.808C844.817 72.136 844.937 71.552 845.177 71.056C845.425 70.552 845.773 70.164 846.221 69.892C846.669 69.612 847.197 69.472 847.805 69.472C848.381 69.472 848.889 69.608 849.329 69.88C849.769 70.144 850.109 70.528 850.349 71.032C850.597 71.536 850.721 72.144 850.721 72.856V73.18H846.137C846.169 73.804 846.333 74.272 846.629 74.584C846.933 74.896 847.341 75.052 847.853 75.052C848.229 75.052 848.541 74.964 848.789 74.788C849.037 74.612 849.209 74.376 849.305 74.08L850.625 74.164C850.457 74.756 850.125 75.236 849.629 75.604C849.141 75.964 848.545 76.144 847.84 76.144ZM846.137 72.22H849.377C849.337 71.652 849.173 71.232 848.885 70.96C848.605 70.688 848.245 70.552 847.805 70.552C847.349 70.552 846.973 70.696 846.677 70.984C846.389 71.264 846.209 71.676 846.137 72.22ZM853.777 76.144C853.233 76.144 852.757 76.008 852.349 75.736C851.949 75.464 851.641 75.08 851.425 74.584C851.217 74.08 851.113 73.488 851.113 72.808C851.113 72.128 851.221 71.54 851.437 71.044C851.653 70.54 851.961 70.152 852.361 69.88C852.761 69.608 853.233 69.472 853.777 69.472C854.217 69.472 854.609 69.564 854.953 69.748C855.297 69.932 855.557 70.188 855.733 70.516V67.48H857.005V76H855.817L855.781 75.04C855.605 75.384 855.337 75.656 854.977 75.856C854.625 76.048 854.225 76.144 853.777 76.144ZM854.113 75.04C854.457 75.04 854.749 74.952 854.989 74.776C855.229 74.6 855.413 74.344 855.541 74.008C855.669 73.672 855.733 73.272 855.733 72.808C855.733 72.328 855.669 71.924 855.541 71.596C855.413 71.26 855.229 71.008 854.989 70.84C854.749 70.664 854.457 70.576 854.113 70.576C853.601 70.576 853.193 70.776 852.889 71.176C852.585 71.568 852.433 72.112 852.433 72.808C852.433 73.496 852.585 74.04 852.889 74.44C853.193 74.84 853.601 75.04 854.113 75.04ZM861.279 76.144C860.839 76.144 860.447 76.048 860.103 75.856C859.767 75.656 859.507 75.384 859.323 75.04L859.287 76H858.099V67.48H859.371V70.516C859.539 70.236 859.787 69.992 860.115 69.784C860.451 69.576 860.839 69.472 861.279 69.472C861.831 69.472 862.311 69.608 862.719 69.88C863.127 70.152 863.439 70.54 863.655 71.044C863.879 71.54 863.991 72.128 863.991 72.808C863.991 73.488 863.879 74.08 863.655 74.584C863.439 75.08 863.127 75.464 862.719 75.736C862.311 76.008 861.831 76.144 861.279 76.144ZM861.075 75.04C861.563 75.04 861.951 74.844 862.239 74.452C862.527 74.052 862.671 73.504 862.671 72.808C862.671 72.112 862.527 71.568 862.239 71.176C861.951 70.776 861.567 70.576 861.087 70.576C860.727 70.576 860.419 70.664 860.163 70.84C859.907 71.016 859.711 71.272 859.575 71.608C859.439 71.936 859.371 72.336 859.371 72.808C859.371 73.264 859.439 73.66 859.575 73.996C859.711 74.332 859.907 74.592 860.163 74.776C860.419 74.952 860.723 75.04 861.075 75.04ZM866.7 76.144C866.036 76.144 865.504 75.992 865.104 75.688C864.712 75.384 864.516 74.956 864.516 74.404C864.516 73.852 864.68 73.424 865.008 73.12C865.344 72.808 865.86 72.584 866.556 72.448L868.752 72.028C868.752 71.532 868.636 71.164 868.404 70.924C868.172 70.676 867.828 70.552 867.372 70.552C866.964 70.552 866.644 70.644 866.412 70.828C866.18 71.004 866.02 71.268 865.932 71.62L864.624 71.536C864.744 70.896 865.04 70.392 865.512 70.024C865.992 69.656 866.612 69.472 867.372 69.472C868.236 69.472 868.892 69.704 869.34 70.168C869.796 70.624 870.024 71.268 870.024 72.1V74.584C870.024 74.736 870.048 74.844 870.096 74.908C870.152 74.964 870.24 74.992 870.36 74.992H870.588V76C870.548 76.008 870.484 76.016 870.396 76.024C870.308 76.032 870.216 76.036 870.12 76.036C869.848 76.036 869.612 75.992 869.412 75.904C869.22 75.816 869.076 75.672 868.98 75.472C868.884 75.264 868.836 74.988 868.836 74.644L868.968 74.704C868.904 74.984 868.764 75.232 868.548 75.448C868.34 75.664 868.072 75.836 867.744 75.964C867.424 76.084 867.076 76.144 866.7 76.144ZM866.904 75.136C867.288 75.136 867.616 75.064 867.888 74.92C868.16 74.768 868.372 74.56 868.524 74.296C868.676 74.032 868.752 73.732 868.752 73.396V72.988L866.88 73.348C866.496 73.42 866.224 73.536 866.064 73.696C865.912 73.848 865.836 74.044 865.836 74.284C865.836 74.556 865.928 74.768 866.112 74.92C866.304 75.064 866.568 75.136 866.904 75.136ZM873.743 76.144C873.135 76.144 872.603 76.008 872.147 75.736C871.691 75.464 871.339 75.076 871.091 74.572C870.843 74.068 870.719 73.48 870.719 72.808C870.719 72.136 870.843 71.552 871.091 71.056C871.339 70.552 871.691 70.164 872.147 69.892C872.603 69.612 873.135 69.472 873.743 69.472C874.263 69.472 874.723 69.564 875.123 69.748C875.531 69.924 875.859 70.184 876.107 70.528C876.363 70.872 876.527 71.292 876.599 71.788L875.267 71.86C875.203 71.444 875.035 71.128 874.763 70.912C874.491 70.688 874.151 70.576 873.743 70.576C873.207 70.576 872.787 70.776 872.483 71.176C872.187 71.568 872.039 72.112 872.039 72.808C872.039 73.504 872.187 74.052 872.483 74.452C872.787 74.844 873.207 75.04 873.743 75.04C874.151 75.04 874.491 74.928 874.763 74.704C875.035 74.472 875.203 74.124 875.267 73.66L876.599 73.732C876.527 74.22 876.363 74.644 876.107 75.004C875.859 75.364 875.531 75.644 875.123 75.844C874.723 76.044 874.263 76.144 873.743 76.144ZM877.259 76V67.48H878.531V72.772L881.399 69.616H883.007L880.511 72.304L883.103 76H881.639L879.659 73.096L878.531 74.296V76H877.259ZM888.278 76.144C887.614 76.144 887.082 75.992 886.682 75.688C886.29 75.384 886.094 74.956 886.094 74.404C886.094 73.852 886.258 73.424 886.586 73.12C886.922 72.808 887.438 72.584 888.134 72.448L890.33 72.028C890.33 71.532 890.214 71.164 889.982 70.924C889.75 70.676 889.406 70.552 888.95 70.552C888.542 70.552 888.222 70.644 887.99 70.828C887.758 71.004 887.598 71.268 887.51 71.62L886.202 71.536C886.322 70.896 886.618 70.392 887.09 70.024C887.57 69.656 888.19 69.472 888.95 69.472C889.814 69.472 890.47 69.704 890.918 70.168C891.374 70.624 891.602 71.268 891.602 72.1V74.584C891.602 74.736 891.626 74.844 891.674 74.908C891.73 74.964 891.818 74.992 891.938 74.992H892.166V76C892.126 76.008 892.062 76.016 891.974 76.024C891.886 76.032 891.794 76.036 891.698 76.036C891.426 76.036 891.19 75.992 890.99 75.904C890.798 75.816 890.654 75.672 890.558 75.472C890.462 75.264 890.414 74.988 890.414 74.644L890.546 74.704C890.482 74.984 890.342 75.232 890.126 75.448C889.918 75.664 889.65 75.836 889.322 75.964C889.002 76.084 888.654 76.144 888.278 76.144ZM888.482 75.136C888.866 75.136 889.194 75.064 889.466 74.92C889.738 74.768 889.95 74.56 890.102 74.296C890.254 74.032 890.33 73.732 890.33 73.396V72.988L888.458 73.348C888.074 73.42 887.802 73.536 887.642 73.696C887.49 73.848 887.414 74.044 887.414 74.284C887.414 74.556 887.506 74.768 887.69 74.92C887.882 75.064 888.146 75.136 888.482 75.136ZM894.961 76.144C894.417 76.144 893.941 76.008 893.533 75.736C893.133 75.464 892.825 75.08 892.609 74.584C892.401 74.08 892.297 73.488 892.297 72.808C892.297 72.128 892.405 71.54 892.621 71.044C892.837 70.54 893.145 70.152 893.545 69.88C893.945 69.608 894.417 69.472 894.961 69.472C895.401 69.472 895.793 69.564 896.137 69.748C896.481 69.932 896.741 70.188 896.917 70.516V67.48H898.189V76H897.001L896.965 75.04C896.789 75.384 896.521 75.656 896.161 75.856C895.809 76.048 895.409 76.144 894.961 76.144ZM895.297 75.04C895.641 75.04 895.933 74.952 896.173 74.776C896.413 74.6 896.597 74.344 896.725 74.008C896.853 73.672 896.917 73.272 896.917 72.808C896.917 72.328 896.853 71.924 896.725 71.596C896.597 71.26 896.413 71.008 896.173 70.84C895.933 70.664 895.641 70.576 895.297 70.576C894.785 70.576 894.377 70.776 894.073 71.176C893.769 71.568 893.617 72.112 893.617 72.808C893.617 73.496 893.769 74.04 894.073 74.44C894.377 74.84 894.785 75.04 895.297 75.04ZM898.358 77.8V76.756H898.934C899.15 76.756 899.318 76.708 899.438 76.612C899.566 76.516 899.63 76.332 899.63 76.06V69.616H900.914V76.108C900.914 76.716 900.774 77.148 900.494 77.404C900.222 77.668 899.766 77.8 899.126 77.8H898.358ZM899.618 68.692V67.42H900.938V68.692H899.618ZM904.094 76.144C903.454 76.144 902.942 75.932 902.558 75.508C902.182 75.076 901.994 74.48 901.994 73.72V69.616H903.266V73.396C903.266 73.972 903.366 74.396 903.566 74.668C903.766 74.94 904.07 75.076 904.478 75.076C904.942 75.076 905.302 74.928 905.558 74.632C905.822 74.328 905.954 73.904 905.954 73.36V69.616H907.226V76H906.038L906.014 74.332L906.194 74.404C906.082 74.964 905.846 75.396 905.486 75.7C905.126 75.996 904.662 76.144 904.094 76.144ZM910.868 76.144C910.268 76.144 909.76 76.052 909.344 75.868C908.936 75.684 908.62 75.432 908.396 75.112C908.172 74.784 908.044 74.408 908.012 73.984L909.32 73.924C909.384 74.276 909.536 74.556 909.776 74.764C910.016 74.972 910.38 75.076 910.868 75.076C911.268 75.076 911.584 75.012 911.816 74.884C912.048 74.756 912.164 74.552 912.164 74.272C912.164 74.12 912.124 73.992 912.044 73.888C911.972 73.776 911.828 73.684 911.612 73.612C911.396 73.532 911.076 73.456 910.652 73.384C910.02 73.264 909.524 73.124 909.164 72.964C908.804 72.804 908.548 72.6 908.396 72.352C908.244 72.104 908.168 71.804 908.168 71.452C908.168 70.868 908.384 70.392 908.816 70.024C909.256 69.656 909.888 69.472 910.712 69.472C911.264 69.472 911.728 69.568 912.104 69.76C912.48 69.944 912.772 70.196 912.98 70.516C913.196 70.828 913.332 71.18 913.388 71.572L912.08 71.644C912.04 71.42 911.96 71.228 911.84 71.068C911.728 70.9 911.576 70.772 911.384 70.684C911.192 70.588 910.964 70.54 910.7 70.54C910.292 70.54 909.988 70.62 909.788 70.78C909.588 70.94 909.488 71.148 909.488 71.404C909.488 71.596 909.532 71.752 909.62 71.872C909.716 71.992 909.868 72.092 910.076 72.172C910.284 72.244 910.56 72.308 910.904 72.364C911.568 72.476 912.088 72.616 912.464 72.784C912.84 72.944 913.104 73.144 913.256 73.384C913.408 73.624 913.484 73.916 913.484 74.26C913.484 74.66 913.372 75 913.148 75.28C912.924 75.56 912.616 75.776 912.224 75.928C911.832 76.072 911.38 76.144 910.868 76.144ZM916.485 76C915.877 76 915.429 75.86 915.141 75.58C914.853 75.3 914.709 74.864 914.709 74.272V68.116H915.981V74.176C915.981 74.472 916.045 74.676 916.173 74.788C916.301 74.9 916.497 74.956 916.761 74.956H917.673V76H916.485ZM913.737 70.66V69.616H917.673V70.66H913.737ZM918.517 76V69.616H919.681L919.717 71.2L919.573 71.152C919.645 70.8 919.769 70.5 919.945 70.252C920.129 70.004 920.353 69.812 920.617 69.676C920.881 69.54 921.169 69.472 921.481 69.472C922.025 69.472 922.469 69.628 922.813 69.94C923.157 70.244 923.373 70.664 923.461 71.2H923.257C923.329 70.824 923.449 70.512 923.617 70.264C923.793 70.008 924.017 69.812 924.289 69.676C924.561 69.54 924.869 69.472 925.213 69.472C925.661 69.472 926.041 69.568 926.353 69.76C926.673 69.944 926.913 70.216 927.073 70.576C927.241 70.936 927.325 71.376 927.325 71.896V76H926.053V72.208C926.053 71.656 925.953 71.24 925.753 70.96C925.553 70.68 925.249 70.54 924.841 70.54C924.577 70.54 924.345 70.608 924.145 70.744C923.945 70.88 923.789 71.076 923.677 71.332C923.573 71.588 923.521 71.896 923.521 72.256V76H922.309V72.256C922.309 71.712 922.217 71.292 922.033 70.996C921.857 70.692 921.553 70.54 921.121 70.54C920.849 70.54 920.613 70.608 920.413 70.744C920.221 70.88 920.069 71.08 919.957 71.344C919.845 71.6 919.789 71.904 919.789 72.256V76H918.517ZM931.122 76.144C930.498 76.144 929.958 76.008 929.502 75.736C929.054 75.464 928.706 75.076 928.458 74.572C928.218 74.068 928.098 73.48 928.098 72.808C928.098 72.136 928.218 71.552 928.458 71.056C928.706 70.552 929.054 70.164 929.502 69.892C929.95 69.612 930.478 69.472 931.086 69.472C931.662 69.472 932.17 69.608 932.61 69.88C933.05 70.144 933.39 70.528 933.63 71.032C933.878 71.536 934.002 72.144 934.002 72.856V73.18H929.418C929.45 73.804 929.614 74.272 929.91 74.584C930.214 74.896 930.622 75.052 931.134 75.052C931.51 75.052 931.822 74.964 932.07 74.788C932.318 74.612 932.49 74.376 932.586 74.08L933.906 74.164C933.738 74.756 933.406 75.236 932.91 75.604C932.422 75.964 931.826 76.144 931.122 76.144ZM929.418 72.22H932.658C932.618 71.652 932.454 71.232 932.166 70.96C931.886 70.688 931.526 70.552 931.086 70.552C930.63 70.552 930.254 70.696 929.958 70.984C929.67 71.264 929.49 71.676 929.418 72.22ZM934.791 76V69.616H935.955L936.003 71.32L935.847 71.236C935.919 70.82 936.055 70.484 936.255 70.228C936.455 69.972 936.699 69.784 936.987 69.664C937.275 69.536 937.587 69.472 937.923 69.472C938.403 69.472 938.799 69.58 939.111 69.796C939.431 70.004 939.671 70.292 939.831 70.66C939.999 71.02 940.083 71.432 940.083 71.896V76H938.811V72.28C938.811 71.904 938.771 71.588 938.691 71.332C938.611 71.076 938.479 70.88 938.295 70.744C938.111 70.608 937.871 70.54 937.575 70.54C937.127 70.54 936.763 70.688 936.483 70.984C936.203 71.28 936.063 71.712 936.063 72.28V76H934.791ZM943.371 76C942.763 76 942.315 75.86 942.027 75.58C941.739 75.3 941.595 74.864 941.595 74.272V68.116H942.867V74.176C942.867 74.472 942.931 74.676 943.059 74.788C943.187 74.9 943.383 74.956 943.647 74.956H944.559V76H943.371ZM940.623 70.66V69.616H944.559V70.66H940.623ZM947.763 76V69.616H948.927L948.975 71.308L948.867 71.272C948.955 70.696 949.131 70.276 949.395 70.012C949.667 69.748 950.031 69.616 950.487 69.616H951.099V70.756H950.487C950.167 70.756 949.899 70.808 949.683 70.912C949.467 71.016 949.303 71.176 949.191 71.392C949.087 71.608 949.035 71.888 949.035 72.232V76H947.763ZM954.133 76.144C953.509 76.144 952.969 76.008 952.513 75.736C952.065 75.464 951.717 75.076 951.469 74.572C951.229 74.068 951.109 73.48 951.109 72.808C951.109 72.136 951.229 71.552 951.469 71.056C951.717 70.552 952.065 70.164 952.513 69.892C952.961 69.612 953.489 69.472 954.097 69.472C954.673 69.472 955.181 69.608 955.621 69.88C956.061 70.144 956.401 70.528 956.641 71.032C956.889 71.536 957.013 72.144 957.013 72.856V73.18H952.429C952.461 73.804 952.625 74.272 952.921 74.584C953.225 74.896 953.633 75.052 954.145 75.052C954.521 75.052 954.833 74.964 955.081 74.788C955.329 74.612 955.501 74.376 955.597 74.08L956.917 74.164C956.749 74.756 956.417 75.236 955.921 75.604C955.433 75.964 954.837 76.144 954.133 76.144ZM952.429 72.22H955.669C955.629 71.652 955.465 71.232 955.177 70.96C954.897 70.688 954.537 70.552 954.097 70.552C953.641 70.552 953.265 70.696 952.969 70.984C952.681 71.264 952.501 71.676 952.429 72.22ZM960.262 76.144C959.662 76.144 959.154 76.052 958.738 75.868C958.33 75.684 958.014 75.432 957.79 75.112C957.566 74.784 957.438 74.408 957.406 73.984L958.714 73.924C958.778 74.276 958.93 74.556 959.17 74.764C959.41 74.972 959.774 75.076 960.262 75.076C960.662 75.076 960.978 75.012 961.21 74.884C961.442 74.756 961.558 74.552 961.558 74.272C961.558 74.12 961.518 73.992 961.438 73.888C961.366 73.776 961.222 73.684 961.006 73.612C960.79 73.532 960.47 73.456 960.046 73.384C959.414 73.264 958.918 73.124 958.558 72.964C958.198 72.804 957.942 72.6 957.79 72.352C957.638 72.104 957.562 71.804 957.562 71.452C957.562 70.868 957.778 70.392 958.21 70.024C958.65 69.656 959.282 69.472 960.106 69.472C960.658 69.472 961.122 69.568 961.498 69.76C961.874 69.944 962.166 70.196 962.374 70.516C962.59 70.828 962.726 71.18 962.782 71.572L961.474 71.644C961.434 71.42 961.354 71.228 961.234 71.068C961.122 70.9 960.97 70.772 960.778 70.684C960.586 70.588 960.358 70.54 960.094 70.54C959.686 70.54 959.382 70.62 959.182 70.78C958.982 70.94 958.882 71.148 958.882 71.404C958.882 71.596 958.926 71.752 959.014 71.872C959.11 71.992 959.262 72.092 959.47 72.172C959.678 72.244 959.954 72.308 960.298 72.364C960.962 72.476 961.482 72.616 961.858 72.784C962.234 72.944 962.498 73.144 962.65 73.384C962.802 73.624 962.878 73.916 962.878 74.26C962.878 74.66 962.766 75 962.542 75.28C962.318 75.56 962.01 75.776 961.618 75.928C961.226 76.072 960.774 76.144 960.262 76.144ZM965.766 76.144C965.126 76.144 964.614 75.932 964.23 75.508C963.854 75.076 963.666 74.48 963.666 73.72V69.616H964.938V73.396C964.938 73.972 965.038 74.396 965.238 74.668C965.438 74.94 965.742 75.076 966.15 75.076C966.614 75.076 966.974 74.928 967.23 74.632C967.494 74.328 967.626 73.904 967.626 73.36V69.616H968.898V76H967.71L967.686 74.332L967.866 74.404C967.754 74.964 967.518 75.396 967.158 75.7C966.798 75.996 966.334 76.144 965.766 76.144ZM971.589 76C971.173 76 970.837 75.892 970.581 75.676C970.325 75.46 970.197 75.116 970.197 74.644V67.48H971.469V74.524C971.469 74.668 971.505 74.776 971.577 74.848C971.657 74.92 971.769 74.956 971.913 74.956H972.417V76H971.589ZM975.168 76C974.56 76 974.112 75.86 973.824 75.58C973.536 75.3 973.392 74.864 973.392 74.272V68.116H974.664V74.176C974.664 74.472 974.728 74.676 974.856 74.788C974.984 74.9 975.18 74.956 975.444 74.956H976.356V76H975.168ZM972.42 70.66V69.616H976.356V70.66H972.42ZM979.426 76.144C978.826 76.144 978.318 76.052 977.902 75.868C977.494 75.684 977.178 75.432 976.954 75.112C976.73 74.784 976.602 74.408 976.57 73.984L977.878 73.924C977.942 74.276 978.094 74.556 978.334 74.764C978.574 74.972 978.938 75.076 979.426 75.076C979.826 75.076 980.142 75.012 980.374 74.884C980.606 74.756 980.722 74.552 980.722 74.272C980.722 74.12 980.682 73.992 980.602 73.888C980.53 73.776 980.386 73.684 980.17 73.612C979.954 73.532 979.634 73.456 979.21 73.384C978.578 73.264 978.082 73.124 977.722 72.964C977.362 72.804 977.106 72.6 976.954 72.352C976.802 72.104 976.726 71.804 976.726 71.452C976.726 70.868 976.942 70.392 977.374 70.024C977.814 69.656 978.446 69.472 979.27 69.472C979.822 69.472 980.286 69.568 980.662 69.76C981.038 69.944 981.33 70.196 981.538 70.516C981.754 70.828 981.89 71.18 981.946 71.572L980.638 71.644C980.598 71.42 980.518 71.228 980.398 71.068C980.286 70.9 980.134 70.772 979.942 70.684C979.75 70.588 979.522 70.54 979.258 70.54C978.85 70.54 978.546 70.62 978.346 70.78C978.146 70.94 978.046 71.148 978.046 71.404C978.046 71.596 978.09 71.752 978.178 71.872C978.274 71.992 978.426 72.092 978.634 72.172C978.842 72.244 979.118 72.308 979.462 72.364C980.126 72.476 980.646 72.616 981.022 72.784C981.398 72.944 981.662 73.144 981.814 73.384C981.966 73.624 982.042 73.916 982.042 74.26C982.042 74.66 981.93 75 981.706 75.28C981.482 75.56 981.174 75.776 980.782 75.928C980.39 76.072 979.938 76.144 979.426 76.144Z" fill="#00367F"/>
<path d="M899.5 45.6667C900.973 45.6667 902.167 44.4728 902.167 43C902.167 41.5272 900.973 40.3333 899.5 40.3333C898.027 40.3333 896.833 41.5272 896.833 43C896.833 44.4728 898.027 45.6667 899.5 45.6667ZM706.646 39.3536C706.842 39.5488 707.158 39.5488 707.354 39.3536L710.536 36.1716C710.731 35.9763 710.731 35.6597 710.536 35.4645C710.34 35.2692 710.024 35.2692 709.828 35.4645L707 38.2929L704.172 35.4645C703.976 35.2692 703.66 35.2692 703.464 35.4645C703.269 35.6597 703.269 35.9763 703.464 36.1716L706.646 39.3536ZM899.5 16L900 16L900 15.5L899.5 15.5L899.5 16ZM707 16L707 15.5L706.5 15.5L706.5 16L707 16ZM899.5 43L900 43L900 16L899.5 16L899 16L899 43L899.5 43ZM899.5 16L899.5 15.5L707 15.5L707 16L707 16.5L899.5 16.5L899.5 16ZM707 16L706.5 16L706.5 39L707 39L707.5 39L707.5 16L707 16Z" fill="#00367F"/>
<path d="M511.354 103.646C511.158 103.451 510.842 103.451 510.646 103.646L507.464 106.828C507.269 107.024 507.269 107.34 507.464 107.536C507.66 107.731 507.976 107.731 508.172 107.536L511 104.707L513.828 107.536C514.024 107.731 514.34 107.731 514.536 107.536C514.731 107.34 514.731 107.024 514.536 106.828L511.354 103.646ZM709.5 105.333C708.027 105.333 706.833 106.527 706.833 108C706.833 109.473 708.027 110.667 709.5 110.667C710.973 110.667 712.167 109.473 712.167 108C712.167 106.527 710.973 105.333 709.5 105.333ZM511 131L510.5 131L510.5 131.5L511 131.5L511 131ZM709.5 131L709.5 131.5L710 131.5L710 131L709.5 131ZM511 104L510.5 104L510.5 131L511 131L511.5 131L511.5 104L511 104ZM511 131L511 131.5L709.5 131.5L709.5 131L709.5 130.5L511 130.5L511 131ZM709.5 131L710 131L710 108L709.5 108L709 108L709 131L709.5 131Z" fill="#00367F"/>
<defs>
<clipPath id="clip0_10134_28086">
<rect width="12" height="12" fill="white" transform="translate(164 65.5)"/>
</clipPath>
<clipPath id="clip1_10134_28086">
<rect width="12" height="12" fill="white" transform="translate(379 65.5)"/>
</clipPath>
<clipPath id="clip2_10134_28086">
<rect width="12" height="12" fill="white" transform="translate(620 65.5)"/>
</clipPath>
<clipPath id="clip3_10134_28086">
<rect width="12" height="12" fill="white" transform="translate(777 65.5)"/>
</clipPath>
</defs>
</svg>
